<mxfile host="app.diagrams.net" modified="2021-07-14T09:46:43.766Z" agent="5.0 (X11; Linux x86_64) AppleWebKit/537.36 (KHTML, like Gecko) Chrome/91.0.4472.106 Safari/537.36" etag="PqJ6hiLMW5IrOJy5uluW" version="14.8.6" type="github" pages="4">
  <diagram id="OZ1MMtjel017AZRqEQAn" name="old-pipeline">
    <mxGraphModel dx="1357" dy="777" grid="1" gridSize="10" guides="1" tooltips="1" connect="1" arrows="1" fold="1" page="1" pageScale="1" pageWidth="1920" pageHeight="1200" math="0" shadow="0">
      <root>
        <mxCell id="Ps-oYh3XHbMtvmbrG-Yp-0" />
        <mxCell id="Ps-oYh3XHbMtvmbrG-Yp-1" parent="Ps-oYh3XHbMtvmbrG-Yp-0" />
        <mxCell id="Ps-oYh3XHbMtvmbrG-Yp-2" style="edgeStyle=none;rounded=0;orthogonalLoop=1;jettySize=auto;html=1;entryX=0;entryY=1;entryDx=0;entryDy=0;" edge="1" parent="Ps-oYh3XHbMtvmbrG-Yp-1" source="Ps-oYh3XHbMtvmbrG-Yp-3" target="Ps-oYh3XHbMtvmbrG-Yp-39">
          <mxGeometry relative="1" as="geometry" />
        </mxCell>
        <mxCell id="Ps-oYh3XHbMtvmbrG-Yp-3" value="&lt;span style=&quot;font-family: &amp;#34;helvetica&amp;#34;&quot;&gt;2.whole body segment&lt;/span&gt;" style="ellipse;whiteSpace=wrap;html=1;rounded=0;shadow=1;comic=0;labelBackgroundColor=none;strokeWidth=1;fontFamily=Verdana;fontSize=12;align=center;" vertex="1" parent="Ps-oYh3XHbMtvmbrG-Yp-1">
          <mxGeometry x="180" y="355" width="100" height="60" as="geometry" />
        </mxCell>
        <mxCell id="Ps-oYh3XHbMtvmbrG-Yp-4" style="edgeStyle=none;rounded=0;orthogonalLoop=1;jettySize=auto;html=1;entryX=0.005;entryY=0.66;entryDx=0;entryDy=0;entryPerimeter=0;" edge="1" parent="Ps-oYh3XHbMtvmbrG-Yp-1" source="Ps-oYh3XHbMtvmbrG-Yp-5" target="Ps-oYh3XHbMtvmbrG-Yp-7">
          <mxGeometry relative="1" as="geometry" />
        </mxCell>
        <mxCell id="Ps-oYh3XHbMtvmbrG-Yp-5" value="&lt;span&gt;4.lung fracture&lt;/span&gt;" style="ellipse;whiteSpace=wrap;html=1;rounded=0;shadow=1;comic=0;labelBackgroundColor=none;strokeWidth=1;fontFamily=Verdana;fontSize=12;align=center;" vertex="1" parent="Ps-oYh3XHbMtvmbrG-Yp-1">
          <mxGeometry x="410" y="355" width="75" height="50" as="geometry" />
        </mxCell>
        <mxCell id="Ps-oYh3XHbMtvmbrG-Yp-6" style="edgeStyle=none;rounded=0;orthogonalLoop=1;jettySize=auto;html=1;" edge="1" parent="Ps-oYh3XHbMtvmbrG-Yp-1" source="Ps-oYh3XHbMtvmbrG-Yp-7" target="Ps-oYh3XHbMtvmbrG-Yp-15">
          <mxGeometry relative="1" as="geometry" />
        </mxCell>
        <mxCell id="Ps-oYh3XHbMtvmbrG-Yp-7" value="&lt;span&gt;5.lung nodule&lt;/span&gt;" style="ellipse;whiteSpace=wrap;html=1;rounded=0;shadow=1;comic=0;labelBackgroundColor=none;strokeWidth=1;fontFamily=Verdana;fontSize=12;align=center;" vertex="1" parent="Ps-oYh3XHbMtvmbrG-Yp-1">
          <mxGeometry x="585" y="303.75" width="75" height="50" as="geometry" />
        </mxCell>
        <mxCell id="Ps-oYh3XHbMtvmbrG-Yp-8" style="edgeStyle=none;rounded=0;orthogonalLoop=1;jettySize=auto;html=1;entryX=0;entryY=0.5;entryDx=0;entryDy=0;" edge="1" parent="Ps-oYh3XHbMtvmbrG-Yp-1" source="Ps-oYh3XHbMtvmbrG-Yp-9" target="Ps-oYh3XHbMtvmbrG-Yp-7">
          <mxGeometry relative="1" as="geometry" />
        </mxCell>
        <mxCell id="Ps-oYh3XHbMtvmbrG-Yp-9" value="3.lung phenumonia" style="ellipse;whiteSpace=wrap;html=1;rounded=0;shadow=1;comic=0;labelBackgroundColor=none;strokeWidth=1;fontFamily=Verdana;fontSize=12;align=center;" vertex="1" parent="Ps-oYh3XHbMtvmbrG-Yp-1">
          <mxGeometry x="410" y="250" width="75" height="50" as="geometry" />
        </mxCell>
        <mxCell id="Ps-oYh3XHbMtvmbrG-Yp-10" style="edgeStyle=none;rounded=0;orthogonalLoop=1;jettySize=auto;html=1;entryX=0;entryY=0;entryDx=0;entryDy=0;" edge="1" parent="Ps-oYh3XHbMtvmbrG-Yp-1" source="Ps-oYh3XHbMtvmbrG-Yp-11" target="Ps-oYh3XHbMtvmbrG-Yp-39">
          <mxGeometry relative="1" as="geometry" />
        </mxCell>
        <mxCell id="Ps-oYh3XHbMtvmbrG-Yp-11" value="&lt;span style=&quot;font-family: &amp;#34;verdana&amp;#34;&quot;&gt;1.body part locate&lt;/span&gt;" style="ellipse;whiteSpace=wrap;html=1;" vertex="1" parent="Ps-oYh3XHbMtvmbrG-Yp-1">
          <mxGeometry x="185" y="250" width="95" height="60" as="geometry" />
        </mxCell>
        <mxCell id="Ps-oYh3XHbMtvmbrG-Yp-12" style="rounded=0;orthogonalLoop=1;jettySize=auto;html=1;exitX=1;exitY=0;exitDx=0;exitDy=0;entryX=0;entryY=0.5;entryDx=0;entryDy=0;" edge="1" parent="Ps-oYh3XHbMtvmbrG-Yp-1" source="Ps-oYh3XHbMtvmbrG-Yp-13" target="Ps-oYh3XHbMtvmbrG-Yp-11">
          <mxGeometry relative="1" as="geometry" />
        </mxCell>
        <mxCell id="Ps-oYh3XHbMtvmbrG-Yp-13" value="START" style="ellipse;whiteSpace=wrap;html=1;" vertex="1" parent="Ps-oYh3XHbMtvmbrG-Yp-1">
          <mxGeometry y="310" width="102" height="60" as="geometry" />
        </mxCell>
        <mxCell id="Ps-oYh3XHbMtvmbrG-Yp-14" style="edgeStyle=none;rounded=0;orthogonalLoop=1;jettySize=auto;html=1;entryX=0;entryY=0.5;entryDx=0;entryDy=0;" edge="1" parent="Ps-oYh3XHbMtvmbrG-Yp-1" source="Ps-oYh3XHbMtvmbrG-Yp-15" target="Ps-oYh3XHbMtvmbrG-Yp-18">
          <mxGeometry relative="1" as="geometry" />
        </mxCell>
        <mxCell id="Ps-oYh3XHbMtvmbrG-Yp-15" value="6.lung result" style="ellipse;whiteSpace=wrap;html=1;" vertex="1" parent="Ps-oYh3XHbMtvmbrG-Yp-1">
          <mxGeometry x="730" y="307.5" width="95" height="50" as="geometry" />
        </mxCell>
        <mxCell id="Ps-oYh3XHbMtvmbrG-Yp-16" value="" style="endArrow=classic;html=1;" edge="1" parent="Ps-oYh3XHbMtvmbrG-Yp-1" source="Ps-oYh3XHbMtvmbrG-Yp-13" target="Ps-oYh3XHbMtvmbrG-Yp-3">
          <mxGeometry width="50" height="50" relative="1" as="geometry">
            <mxPoint x="520" y="580" as="sourcePoint" />
            <mxPoint x="570" y="530" as="targetPoint" />
          </mxGeometry>
        </mxCell>
        <mxCell id="Ps-oYh3XHbMtvmbrG-Yp-17" style="edgeStyle=none;rounded=0;orthogonalLoop=1;jettySize=auto;html=1;" edge="1" parent="Ps-oYh3XHbMtvmbrG-Yp-1" source="Ps-oYh3XHbMtvmbrG-Yp-18" target="Ps-oYh3XHbMtvmbrG-Yp-20">
          <mxGeometry relative="1" as="geometry" />
        </mxCell>
        <mxCell id="Ps-oYh3XHbMtvmbrG-Yp-18" value="7.lung registration" style="ellipse;whiteSpace=wrap;html=1;" vertex="1" parent="Ps-oYh3XHbMtvmbrG-Yp-1">
          <mxGeometry x="895" y="307.5" width="100" height="50" as="geometry" />
        </mxCell>
        <mxCell id="Ps-oYh3XHbMtvmbrG-Yp-19" style="edgeStyle=none;rounded=0;orthogonalLoop=1;jettySize=auto;html=1;entryX=1;entryY=0.5;entryDx=0;entryDy=0;" edge="1" parent="Ps-oYh3XHbMtvmbrG-Yp-1" source="Ps-oYh3XHbMtvmbrG-Yp-20" target="Ps-oYh3XHbMtvmbrG-Yp-22">
          <mxGeometry relative="1" as="geometry" />
        </mxCell>
        <mxCell id="Ps-oYh3XHbMtvmbrG-Yp-20" value="8.cardiac coronary" style="ellipse;whiteSpace=wrap;html=1;" vertex="1" parent="Ps-oYh3XHbMtvmbrG-Yp-1">
          <mxGeometry x="885" y="456.25" width="110" height="62.5" as="geometry" />
        </mxCell>
        <mxCell id="Ps-oYh3XHbMtvmbrG-Yp-21" style="edgeStyle=none;rounded=0;orthogonalLoop=1;jettySize=auto;html=1;entryX=1;entryY=0.5;entryDx=0;entryDy=0;" edge="1" parent="Ps-oYh3XHbMtvmbrG-Yp-1" source="Ps-oYh3XHbMtvmbrG-Yp-22" target="Ps-oYh3XHbMtvmbrG-Yp-24">
          <mxGeometry relative="1" as="geometry" />
        </mxCell>
        <mxCell id="Ps-oYh3XHbMtvmbrG-Yp-22" value="9.liver phase detect" style="ellipse;whiteSpace=wrap;html=1;" vertex="1" parent="Ps-oYh3XHbMtvmbrG-Yp-1">
          <mxGeometry x="730" y="463.75" width="100" height="55" as="geometry" />
        </mxCell>
        <mxCell id="Ps-oYh3XHbMtvmbrG-Yp-23" style="edgeStyle=none;rounded=0;orthogonalLoop=1;jettySize=auto;html=1;entryX=1;entryY=0.5;entryDx=0;entryDy=0;" edge="1" parent="Ps-oYh3XHbMtvmbrG-Yp-1" source="Ps-oYh3XHbMtvmbrG-Yp-24" target="Ps-oYh3XHbMtvmbrG-Yp-26">
          <mxGeometry relative="1" as="geometry" />
        </mxCell>
        <mxCell id="Ps-oYh3XHbMtvmbrG-Yp-24" value="10.liver organ segment" style="ellipse;whiteSpace=wrap;html=1;" vertex="1" parent="Ps-oYh3XHbMtvmbrG-Yp-1">
          <mxGeometry x="585" y="463.75" width="100" height="60" as="geometry" />
        </mxCell>
        <mxCell id="Ps-oYh3XHbMtvmbrG-Yp-25" style="edgeStyle=none;rounded=0;orthogonalLoop=1;jettySize=auto;html=1;entryX=1;entryY=0.5;entryDx=0;entryDy=0;" edge="1" parent="Ps-oYh3XHbMtvmbrG-Yp-1" source="Ps-oYh3XHbMtvmbrG-Yp-26" target="Ps-oYh3XHbMtvmbrG-Yp-28">
          <mxGeometry relative="1" as="geometry" />
        </mxCell>
        <mxCell id="Ps-oYh3XHbMtvmbrG-Yp-26" value="11.liver registration" style="ellipse;whiteSpace=wrap;html=1;" vertex="1" parent="Ps-oYh3XHbMtvmbrG-Yp-1">
          <mxGeometry x="425" y="463.75" width="100" height="60" as="geometry" />
        </mxCell>
        <mxCell id="Ps-oYh3XHbMtvmbrG-Yp-27" style="edgeStyle=none;rounded=0;orthogonalLoop=1;jettySize=auto;html=1;" edge="1" parent="Ps-oYh3XHbMtvmbrG-Yp-1" source="Ps-oYh3XHbMtvmbrG-Yp-28" target="Ps-oYh3XHbMtvmbrG-Yp-30">
          <mxGeometry relative="1" as="geometry" />
        </mxCell>
        <mxCell id="Ps-oYh3XHbMtvmbrG-Yp-28" value="12.liver lesion analysis" style="ellipse;whiteSpace=wrap;html=1;" vertex="1" parent="Ps-oYh3XHbMtvmbrG-Yp-1">
          <mxGeometry x="260" y="463.75" width="110" height="60" as="geometry" />
        </mxCell>
        <mxCell id="Ps-oYh3XHbMtvmbrG-Yp-29" style="edgeStyle=none;rounded=0;orthogonalLoop=1;jettySize=auto;html=1;" edge="1" parent="Ps-oYh3XHbMtvmbrG-Yp-1" source="Ps-oYh3XHbMtvmbrG-Yp-30" target="Ps-oYh3XHbMtvmbrG-Yp-35">
          <mxGeometry relative="1" as="geometry" />
        </mxCell>
        <mxCell id="Ps-oYh3XHbMtvmbrG-Yp-30" value="13.liver global analysis" style="ellipse;whiteSpace=wrap;html=1;" vertex="1" parent="Ps-oYh3XHbMtvmbrG-Yp-1">
          <mxGeometry x="92" y="463.75" width="100" height="60" as="geometry" />
        </mxCell>
        <mxCell id="Ps-oYh3XHbMtvmbrG-Yp-31" style="edgeStyle=none;rounded=0;orthogonalLoop=1;jettySize=auto;html=1;" edge="1" parent="Ps-oYh3XHbMtvmbrG-Yp-1" source="Ps-oYh3XHbMtvmbrG-Yp-32" target="Ps-oYh3XHbMtvmbrG-Yp-33">
          <mxGeometry relative="1" as="geometry" />
        </mxCell>
        <mxCell id="Ps-oYh3XHbMtvmbrG-Yp-32" value="15.pelvis bone segment" style="ellipse;whiteSpace=wrap;html=1;" vertex="1" parent="Ps-oYh3XHbMtvmbrG-Yp-1">
          <mxGeometry x="260" y="591.25" width="90" height="57.5" as="geometry" />
        </mxCell>
        <mxCell id="Ps-oYh3XHbMtvmbrG-Yp-33" value="16.pelvis ct mr registration" style="ellipse;whiteSpace=wrap;html=1;" vertex="1" parent="Ps-oYh3XHbMtvmbrG-Yp-1">
          <mxGeometry x="430" y="588.75" width="100" height="60" as="geometry" />
        </mxCell>
        <mxCell id="Ps-oYh3XHbMtvmbrG-Yp-34" style="edgeStyle=none;rounded=0;orthogonalLoop=1;jettySize=auto;html=1;entryX=0;entryY=0.5;entryDx=0;entryDy=0;" edge="1" parent="Ps-oYh3XHbMtvmbrG-Yp-1" source="Ps-oYh3XHbMtvmbrG-Yp-35" target="Ps-oYh3XHbMtvmbrG-Yp-32">
          <mxGeometry relative="1" as="geometry" />
        </mxCell>
        <mxCell id="Ps-oYh3XHbMtvmbrG-Yp-35" value="14.liver ct mr registration" style="ellipse;whiteSpace=wrap;html=1;" vertex="1" parent="Ps-oYh3XHbMtvmbrG-Yp-1">
          <mxGeometry x="92" y="590" width="100" height="60" as="geometry" />
        </mxCell>
        <mxCell id="Ps-oYh3XHbMtvmbrG-Yp-36" style="edgeStyle=none;rounded=0;orthogonalLoop=1;jettySize=auto;html=1;entryX=0;entryY=0.5;entryDx=0;entryDy=0;startArrow=none;" edge="1" parent="Ps-oYh3XHbMtvmbrG-Yp-1" source="Ps-oYh3XHbMtvmbrG-Yp-39" target="Ps-oYh3XHbMtvmbrG-Yp-5">
          <mxGeometry relative="1" as="geometry" />
        </mxCell>
        <mxCell id="Ps-oYh3XHbMtvmbrG-Yp-37" value="" style="ellipse;whiteSpace=wrap;html=1;" vertex="1" parent="Ps-oYh3XHbMtvmbrG-Yp-1">
          <mxGeometry x="330" y="327.5" height="2.5" as="geometry" />
        </mxCell>
        <mxCell id="Ps-oYh3XHbMtvmbrG-Yp-38" style="edgeStyle=none;rounded=0;orthogonalLoop=1;jettySize=auto;html=1;entryX=0;entryY=0.8;entryDx=0;entryDy=0;entryPerimeter=0;" edge="1" parent="Ps-oYh3XHbMtvmbrG-Yp-1" source="Ps-oYh3XHbMtvmbrG-Yp-39" target="Ps-oYh3XHbMtvmbrG-Yp-9">
          <mxGeometry relative="1" as="geometry" />
        </mxCell>
        <mxCell id="Ps-oYh3XHbMtvmbrG-Yp-39" value="sync&lt;br&gt;" style="ellipse;whiteSpace=wrap;html=1;aspect=fixed;" vertex="1" parent="Ps-oYh3XHbMtvmbrG-Yp-1">
          <mxGeometry x="320" y="317.5" width="32.5" height="32.5" as="geometry" />
        </mxCell>
      </root>
    </mxGraphModel>
  </diagram>
  <diagram name="ai-graph" id="42789a77-a242-8287-6e28-9cd8cfd52e62">
    <mxGraphModel dx="1357" dy="777" grid="1" gridSize="10" guides="1" tooltips="1" connect="1" arrows="1" fold="1" page="1" pageScale="1" pageWidth="1100" pageHeight="850" background="#ffffff" math="0" shadow="0">
      <root>
        <mxCell id="0" />
        <mxCell id="1" parent="0" />
        <mxCell id="1ea317790d2ca983-1" value="1.body part locate" style="ellipse;whiteSpace=wrap;html=1;rounded=0;shadow=1;comic=0;labelBackgroundColor=none;strokeWidth=1;fontFamily=Verdana;fontSize=12;align=center;" parent="1" vertex="1">
          <mxGeometry x="414" y="90" width="90" height="60" as="geometry" />
        </mxCell>
        <mxCell id="1ea317790d2ca983-2" value="&lt;span&gt;4.lung fracture&lt;/span&gt;" style="ellipse;whiteSpace=wrap;html=1;rounded=0;shadow=1;comic=0;labelBackgroundColor=none;strokeWidth=1;fontFamily=Verdana;fontSize=12;align=center;" parent="1" vertex="1">
          <mxGeometry x="290" y="211.25" width="75" height="50" as="geometry" />
        </mxCell>
        <mxCell id="1ea317790d2ca983-3" value="&lt;span&gt;5.lung nodule&lt;/span&gt;" style="ellipse;whiteSpace=wrap;html=1;rounded=0;shadow=1;comic=0;labelBackgroundColor=none;strokeWidth=1;fontFamily=Verdana;fontSize=12;align=center;" parent="1" vertex="1">
          <mxGeometry x="397.5" y="211.25" width="75" height="50" as="geometry" />
        </mxCell>
        <mxCell id="1ea317790d2ca983-9" value="3.lung phenumonia" style="ellipse;whiteSpace=wrap;html=1;rounded=0;shadow=1;comic=0;labelBackgroundColor=none;strokeWidth=1;fontFamily=Verdana;fontSize=12;align=center;" parent="1" vertex="1">
          <mxGeometry x="190" y="211.25" width="75" height="50" as="geometry" />
        </mxCell>
        <mxCell id="E7qCEXml-a51oX7vlCE2-1" value="2.whole body segment" style="ellipse;whiteSpace=wrap;html=1;" parent="1" vertex="1">
          <mxGeometry x="210" y="90" width="100" height="60" as="geometry" />
        </mxCell>
        <mxCell id="E7qCEXml-a51oX7vlCE2-6" value="START" style="ellipse;whiteSpace=wrap;html=1;" parent="1" vertex="1">
          <mxGeometry x="408" width="102" height="60" as="geometry" />
        </mxCell>
        <mxCell id="E7qCEXml-a51oX7vlCE2-11" value="6.lung result" style="ellipse;whiteSpace=wrap;html=1;" parent="1" vertex="1">
          <mxGeometry x="220" y="340" width="95" height="50" as="geometry" />
        </mxCell>
        <mxCell id="E7qCEXml-a51oX7vlCE2-13" value="" style="endArrow=classic;html=1;" parent="1" source="E7qCEXml-a51oX7vlCE2-6" target="1ea317790d2ca983-1" edge="1">
          <mxGeometry width="50" height="50" relative="1" as="geometry">
            <mxPoint x="520" y="370" as="sourcePoint" />
            <mxPoint x="570" y="320" as="targetPoint" />
          </mxGeometry>
        </mxCell>
        <mxCell id="E7qCEXml-a51oX7vlCE2-18" value="" style="endArrow=classic;html=1;exitX=0.5;exitY=1;exitDx=0;exitDy=0;" parent="1" source="1ea317790d2ca983-9" target="E7qCEXml-a51oX7vlCE2-11" edge="1">
          <mxGeometry width="50" height="50" relative="1" as="geometry">
            <mxPoint x="520" y="370" as="sourcePoint" />
            <mxPoint x="570" y="320" as="targetPoint" />
          </mxGeometry>
        </mxCell>
        <mxCell id="E7qCEXml-a51oX7vlCE2-19" value="" style="endArrow=classic;html=1;exitX=0.5;exitY=1;exitDx=0;exitDy=0;" parent="1" source="1ea317790d2ca983-2" target="E7qCEXml-a51oX7vlCE2-11" edge="1">
          <mxGeometry width="50" height="50" relative="1" as="geometry">
            <mxPoint x="520" y="370" as="sourcePoint" />
            <mxPoint x="570" y="320" as="targetPoint" />
          </mxGeometry>
        </mxCell>
        <mxCell id="E7qCEXml-a51oX7vlCE2-20" value="" style="endArrow=classic;html=1;exitX=0.307;exitY=0.94;exitDx=0;exitDy=0;exitPerimeter=0;" parent="1" source="1ea317790d2ca983-3" target="E7qCEXml-a51oX7vlCE2-11" edge="1">
          <mxGeometry width="50" height="50" relative="1" as="geometry">
            <mxPoint x="520" y="370" as="sourcePoint" />
            <mxPoint x="570" y="320" as="targetPoint" />
          </mxGeometry>
        </mxCell>
        <mxCell id="E7qCEXml-a51oX7vlCE2-22" value="" style="endArrow=classic;html=1;exitX=0.5;exitY=1;exitDx=0;exitDy=0;" parent="1" source="1ea317790d2ca983-3" target="E7qCEXml-a51oX7vlCE2-23" edge="1">
          <mxGeometry width="50" height="50" relative="1" as="geometry">
            <mxPoint x="510" y="270" as="sourcePoint" />
            <mxPoint x="570" y="320" as="targetPoint" />
          </mxGeometry>
        </mxCell>
        <mxCell id="E7qCEXml-a51oX7vlCE2-23" value="7.lung registration" style="ellipse;whiteSpace=wrap;html=1;" parent="1" vertex="1">
          <mxGeometry x="340" y="337.5" width="100" height="50" as="geometry" />
        </mxCell>
        <mxCell id="E7qCEXml-a51oX7vlCE2-24" value="8.cardiac coronary" style="ellipse;whiteSpace=wrap;html=1;" parent="1" vertex="1">
          <mxGeometry x="595" y="90" width="110" height="62.5" as="geometry" />
        </mxCell>
        <mxCell id="E7qCEXml-a51oX7vlCE2-26" value="" style="endArrow=classic;html=1;exitX=1;exitY=1;exitDx=0;exitDy=0;" parent="1" source="E7qCEXml-a51oX7vlCE2-6" target="E7qCEXml-a51oX7vlCE2-24" edge="1">
          <mxGeometry width="50" height="50" relative="1" as="geometry">
            <mxPoint x="680" y="260" as="sourcePoint" />
            <mxPoint x="730" y="210" as="targetPoint" />
          </mxGeometry>
        </mxCell>
        <mxCell id="E7qCEXml-a51oX7vlCE2-34" value="" style="endArrow=classic;html=1;entryX=0.5;entryY=0;entryDx=0;entryDy=0;" parent="1" source="1ea317790d2ca983-1" target="1ea317790d2ca983-9" edge="1">
          <mxGeometry width="50" height="50" relative="1" as="geometry">
            <mxPoint x="520" y="370" as="sourcePoint" />
            <mxPoint x="570" y="320" as="targetPoint" />
          </mxGeometry>
        </mxCell>
        <mxCell id="E7qCEXml-a51oX7vlCE2-35" value="" style="endArrow=classic;html=1;" parent="1" source="1ea317790d2ca983-1" target="1ea317790d2ca983-2" edge="1">
          <mxGeometry width="50" height="50" relative="1" as="geometry">
            <mxPoint x="520" y="370" as="sourcePoint" />
            <mxPoint x="570" y="320" as="targetPoint" />
          </mxGeometry>
        </mxCell>
        <mxCell id="E7qCEXml-a51oX7vlCE2-36" value="9.liver scouting" style="ellipse;whiteSpace=wrap;html=1;" parent="1" vertex="1">
          <mxGeometry x="495" y="212.5" width="90" height="55" as="geometry" />
        </mxCell>
        <mxCell id="E7qCEXml-a51oX7vlCE2-40" value="" style="endArrow=classic;html=1;entryX=0.97;entryY=0.3;entryDx=0;entryDy=0;entryPerimeter=0;exitX=0;exitY=1;exitDx=0;exitDy=0;" parent="1" source="E7qCEXml-a51oX7vlCE2-6" target="E7qCEXml-a51oX7vlCE2-1" edge="1">
          <mxGeometry width="50" height="50" relative="1" as="geometry">
            <mxPoint x="430" y="48" as="sourcePoint" />
            <mxPoint x="610" y="230" as="targetPoint" />
          </mxGeometry>
        </mxCell>
        <mxCell id="E7qCEXml-a51oX7vlCE2-43" value="" style="endArrow=classic;html=1;" parent="1" source="1ea317790d2ca983-1" target="1ea317790d2ca983-3" edge="1">
          <mxGeometry width="50" height="50" relative="1" as="geometry">
            <mxPoint x="520" y="370" as="sourcePoint" />
            <mxPoint x="570" y="320" as="targetPoint" />
          </mxGeometry>
        </mxCell>
        <mxCell id="E7qCEXml-a51oX7vlCE2-44" value="" style="endArrow=classic;html=1;" parent="1" source="1ea317790d2ca983-1" target="E7qCEXml-a51oX7vlCE2-36" edge="1">
          <mxGeometry width="50" height="50" relative="1" as="geometry">
            <mxPoint x="520" y="370" as="sourcePoint" />
            <mxPoint x="570" y="320" as="targetPoint" />
          </mxGeometry>
        </mxCell>
        <mxCell id="E7qCEXml-a51oX7vlCE2-45" value="10.liver phase detect" style="ellipse;whiteSpace=wrap;html=1;" parent="1" vertex="1">
          <mxGeometry x="455" y="335" width="100" height="55" as="geometry" />
        </mxCell>
        <mxCell id="E7qCEXml-a51oX7vlCE2-46" value="" style="endArrow=classic;html=1;" parent="1" source="E7qCEXml-a51oX7vlCE2-36" target="E7qCEXml-a51oX7vlCE2-45" edge="1">
          <mxGeometry width="50" height="50" relative="1" as="geometry">
            <mxPoint x="520" y="370" as="sourcePoint" />
            <mxPoint x="570" y="320" as="targetPoint" />
          </mxGeometry>
        </mxCell>
        <mxCell id="E7qCEXml-a51oX7vlCE2-47" value="11.liver organ segment" style="ellipse;whiteSpace=wrap;html=1;" parent="1" vertex="1">
          <mxGeometry x="397.5" y="400" width="100" height="60" as="geometry" />
        </mxCell>
        <mxCell id="E7qCEXml-a51oX7vlCE2-50" value="" style="endArrow=classic;html=1;entryX=0.5;entryY=0;entryDx=0;entryDy=0;exitX=0;exitY=1;exitDx=0;exitDy=0;" parent="1" source="E7qCEXml-a51oX7vlCE2-45" target="E7qCEXml-a51oX7vlCE2-47" edge="1">
          <mxGeometry width="50" height="50" relative="1" as="geometry">
            <mxPoint x="590" y="400" as="sourcePoint" />
            <mxPoint x="470" y="410" as="targetPoint" />
          </mxGeometry>
        </mxCell>
        <mxCell id="E7qCEXml-a51oX7vlCE2-51" value="12.liver vessel segment" style="ellipse;whiteSpace=wrap;html=1;" parent="1" vertex="1">
          <mxGeometry x="346.5" y="510" width="110" height="60" as="geometry" />
        </mxCell>
        <mxCell id="E7qCEXml-a51oX7vlCE2-52" value="" style="endArrow=classic;html=1;entryX=0.5;entryY=0;entryDx=0;entryDy=0;exitX=0.5;exitY=1;exitDx=0;exitDy=0;" parent="1" source="E7qCEXml-a51oX7vlCE2-47" target="E7qCEXml-a51oX7vlCE2-51" edge="1">
          <mxGeometry width="50" height="50" relative="1" as="geometry">
            <mxPoint x="520" y="480" as="sourcePoint" />
            <mxPoint x="570" y="430" as="targetPoint" />
          </mxGeometry>
        </mxCell>
        <mxCell id="E7qCEXml-a51oX7vlCE2-53" value="13.liver vessel naming" style="ellipse;whiteSpace=wrap;html=1;" parent="1" vertex="1">
          <mxGeometry x="355" y="600" width="100" height="60" as="geometry" />
        </mxCell>
        <mxCell id="E7qCEXml-a51oX7vlCE2-54" value="" style="endArrow=classic;html=1;exitX=0.5;exitY=1;exitDx=0;exitDy=0;" parent="1" source="E7qCEXml-a51oX7vlCE2-51" target="E7qCEXml-a51oX7vlCE2-53" edge="1">
          <mxGeometry width="50" height="50" relative="1" as="geometry">
            <mxPoint x="520" y="480" as="sourcePoint" />
            <mxPoint x="570" y="430" as="targetPoint" />
          </mxGeometry>
        </mxCell>
        <mxCell id="E7qCEXml-a51oX7vlCE2-55" value="14.liver registration" style="ellipse;whiteSpace=wrap;html=1;" parent="1" vertex="1">
          <mxGeometry x="484" y="510" width="100" height="60" as="geometry" />
        </mxCell>
        <mxCell id="E7qCEXml-a51oX7vlCE2-58" value="" style="endArrow=classic;html=1;" parent="1" source="E7qCEXml-a51oX7vlCE2-47" target="E7qCEXml-a51oX7vlCE2-55" edge="1">
          <mxGeometry width="50" height="50" relative="1" as="geometry">
            <mxPoint x="520" y="640" as="sourcePoint" />
            <mxPoint x="570" y="590" as="targetPoint" />
          </mxGeometry>
        </mxCell>
        <mxCell id="E7qCEXml-a51oX7vlCE2-59" value="15.liver lesion segment" style="ellipse;whiteSpace=wrap;html=1;" parent="1" vertex="1">
          <mxGeometry x="614" y="510" width="100" height="60" as="geometry" />
        </mxCell>
        <mxCell id="E7qCEXml-a51oX7vlCE2-60" value="" style="endArrow=classic;html=1;exitX=1;exitY=1;exitDx=0;exitDy=0;" parent="1" source="E7qCEXml-a51oX7vlCE2-47" target="E7qCEXml-a51oX7vlCE2-59" edge="1">
          <mxGeometry width="50" height="50" relative="1" as="geometry">
            <mxPoint x="520" y="640" as="sourcePoint" />
            <mxPoint x="570" y="590" as="targetPoint" />
          </mxGeometry>
        </mxCell>
        <mxCell id="E7qCEXml-a51oX7vlCE2-61" value="16.liver lesion instantiation" style="ellipse;whiteSpace=wrap;html=1;" parent="1" vertex="1">
          <mxGeometry x="497.5" y="600" width="110" height="60" as="geometry" />
        </mxCell>
        <mxCell id="E7qCEXml-a51oX7vlCE2-62" value="" style="endArrow=classic;html=1;exitX=0.5;exitY=1;exitDx=0;exitDy=0;entryX=0.5;entryY=0;entryDx=0;entryDy=0;" parent="1" source="E7qCEXml-a51oX7vlCE2-55" target="E7qCEXml-a51oX7vlCE2-61" edge="1">
          <mxGeometry width="50" height="50" relative="1" as="geometry">
            <mxPoint x="520" y="530" as="sourcePoint" />
            <mxPoint x="570" y="480" as="targetPoint" />
          </mxGeometry>
        </mxCell>
        <mxCell id="E7qCEXml-a51oX7vlCE2-63" value="" style="endArrow=classic;html=1;exitX=0.5;exitY=1;exitDx=0;exitDy=0;entryX=0.682;entryY=0.057;entryDx=0;entryDy=0;entryPerimeter=0;" parent="1" source="E7qCEXml-a51oX7vlCE2-59" target="E7qCEXml-a51oX7vlCE2-61" edge="1">
          <mxGeometry width="50" height="50" relative="1" as="geometry">
            <mxPoint x="520" y="530" as="sourcePoint" />
            <mxPoint x="570" y="480" as="targetPoint" />
          </mxGeometry>
        </mxCell>
        <mxCell id="E7qCEXml-a51oX7vlCE2-64" value="17. liver lesion projection" style="ellipse;whiteSpace=wrap;html=1;" parent="1" vertex="1">
          <mxGeometry x="440" y="690" width="110" height="60" as="geometry" />
        </mxCell>
        <mxCell id="E7qCEXml-a51oX7vlCE2-65" value="" style="endArrow=classic;html=1;exitX=0.309;exitY=0.957;exitDx=0;exitDy=0;entryX=0.5;entryY=0;entryDx=0;entryDy=0;exitPerimeter=0;" parent="1" source="E7qCEXml-a51oX7vlCE2-61" target="E7qCEXml-a51oX7vlCE2-64" edge="1">
          <mxGeometry width="50" height="50" relative="1" as="geometry">
            <mxPoint x="520" y="790" as="sourcePoint" />
            <mxPoint x="570" y="740" as="targetPoint" />
          </mxGeometry>
        </mxCell>
        <mxCell id="E7qCEXml-a51oX7vlCE2-66" value="18.liver lesion diagnosis" style="ellipse;whiteSpace=wrap;html=1;" parent="1" vertex="1">
          <mxGeometry x="585" y="690" width="100" height="60" as="geometry" />
        </mxCell>
        <mxCell id="E7qCEXml-a51oX7vlCE2-67" value="" style="endArrow=classic;html=1;exitX=1;exitY=1;exitDx=0;exitDy=0;" parent="1" source="E7qCEXml-a51oX7vlCE2-61" target="E7qCEXml-a51oX7vlCE2-66" edge="1">
          <mxGeometry width="50" height="50" relative="1" as="geometry">
            <mxPoint x="520" y="640" as="sourcePoint" />
            <mxPoint x="570" y="590" as="targetPoint" />
          </mxGeometry>
        </mxCell>
        <mxCell id="E7qCEXml-a51oX7vlCE2-68" value="19.liver convex grading" style="ellipse;whiteSpace=wrap;html=1;" parent="1" vertex="1">
          <mxGeometry x="210" y="510" width="100" height="60" as="geometry" />
        </mxCell>
        <mxCell id="E7qCEXml-a51oX7vlCE2-69" value="20.liver tdc calculation" style="ellipse;whiteSpace=wrap;html=1;" parent="1" vertex="1">
          <mxGeometry x="77.5" y="510" width="100" height="60" as="geometry" />
        </mxCell>
        <mxCell id="E7qCEXml-a51oX7vlCE2-70" value="22.liver ct mr registration" style="ellipse;whiteSpace=wrap;html=1;" parent="1" vertex="1">
          <mxGeometry x="754" y="510" width="100" height="60" as="geometry" />
        </mxCell>
        <mxCell id="E7qCEXml-a51oX7vlCE2-71" value="23.pelvis bone segment" style="ellipse;whiteSpace=wrap;html=1;" parent="1" vertex="1">
          <mxGeometry x="645" y="212.5" width="90" height="57.5" as="geometry" />
        </mxCell>
        <mxCell id="E7qCEXml-a51oX7vlCE2-72" value="" style="endArrow=classic;html=1;" parent="1" source="1ea317790d2ca983-1" target="E7qCEXml-a51oX7vlCE2-71" edge="1">
          <mxGeometry width="50" height="50" relative="1" as="geometry">
            <mxPoint x="520" y="210" as="sourcePoint" />
            <mxPoint x="570" y="160" as="targetPoint" />
          </mxGeometry>
        </mxCell>
        <mxCell id="E7qCEXml-a51oX7vlCE2-73" value="24.pelvis ct mr registration" style="ellipse;whiteSpace=wrap;html=1;" parent="1" vertex="1">
          <mxGeometry x="630" y="330" width="100" height="60" as="geometry" />
        </mxCell>
        <mxCell id="E7qCEXml-a51oX7vlCE2-74" value="" style="endArrow=classic;html=1;exitX=0.5;exitY=1;exitDx=0;exitDy=0;entryX=0.5;entryY=0;entryDx=0;entryDy=0;" parent="1" source="E7qCEXml-a51oX7vlCE2-71" target="E7qCEXml-a51oX7vlCE2-73" edge="1">
          <mxGeometry width="50" height="50" relative="1" as="geometry">
            <mxPoint x="520" y="370" as="sourcePoint" />
            <mxPoint x="570" y="320" as="targetPoint" />
          </mxGeometry>
        </mxCell>
        <mxCell id="E7qCEXml-a51oX7vlCE2-75" value="" style="endArrow=classic;html=1;entryX=1;entryY=0;entryDx=0;entryDy=0;exitX=0;exitY=1;exitDx=0;exitDy=0;" parent="1" source="E7qCEXml-a51oX7vlCE2-47" target="E7qCEXml-a51oX7vlCE2-68" edge="1">
          <mxGeometry width="50" height="50" relative="1" as="geometry">
            <mxPoint x="520" y="690" as="sourcePoint" />
            <mxPoint x="570" y="640" as="targetPoint" />
          </mxGeometry>
        </mxCell>
        <mxCell id="E7qCEXml-a51oX7vlCE2-76" value="" style="endArrow=classic;html=1;entryX=1;entryY=0;entryDx=0;entryDy=0;exitX=0.05;exitY=0.717;exitDx=0;exitDy=0;exitPerimeter=0;" parent="1" source="E7qCEXml-a51oX7vlCE2-47" target="E7qCEXml-a51oX7vlCE2-69" edge="1">
          <mxGeometry width="50" height="50" relative="1" as="geometry">
            <mxPoint x="500" y="480" as="sourcePoint" />
            <mxPoint x="570" y="640" as="targetPoint" />
          </mxGeometry>
        </mxCell>
        <mxCell id="E7qCEXml-a51oX7vlCE2-77" value="" style="endArrow=classic;html=1;exitX=1;exitY=0.5;exitDx=0;exitDy=0;entryX=0.27;entryY=0.067;entryDx=0;entryDy=0;entryPerimeter=0;" parent="1" source="E7qCEXml-a51oX7vlCE2-47" target="E7qCEXml-a51oX7vlCE2-70" edge="1">
          <mxGeometry width="50" height="50" relative="1" as="geometry">
            <mxPoint x="520" y="690" as="sourcePoint" />
            <mxPoint x="570" y="640" as="targetPoint" />
          </mxGeometry>
        </mxCell>
        <mxCell id="E7qCEXml-a51oX7vlCE2-78" value="21.liver spleen ratio calculation" style="ellipse;whiteSpace=wrap;html=1;" parent="1" vertex="1">
          <mxGeometry x="140" y="770" width="112.5" height="70" as="geometry" />
        </mxCell>
        <mxCell id="E7qCEXml-a51oX7vlCE2-79" value="" style="endArrow=classic;html=1;exitX=0.5;exitY=1;exitDx=0;exitDy=0;" parent="1" source="E7qCEXml-a51oX7vlCE2-69" target="E7qCEXml-a51oX7vlCE2-78" edge="1">
          <mxGeometry width="50" height="50" relative="1" as="geometry">
            <mxPoint x="520" y="640" as="sourcePoint" />
            <mxPoint x="570" y="590" as="targetPoint" />
          </mxGeometry>
        </mxCell>
        <mxCell id="E7qCEXml-a51oX7vlCE2-80" value="" style="endArrow=classic;html=1;exitX=0.5;exitY=1;exitDx=0;exitDy=0;entryX=0.5;entryY=0;entryDx=0;entryDy=0;" parent="1" source="E7qCEXml-a51oX7vlCE2-68" target="E7qCEXml-a51oX7vlCE2-78" edge="1">
          <mxGeometry width="50" height="50" relative="1" as="geometry">
            <mxPoint x="520" y="640" as="sourcePoint" />
            <mxPoint x="570" y="590" as="targetPoint" />
          </mxGeometry>
        </mxCell>
        <mxCell id="E7qCEXml-a51oX7vlCE2-81" value="" style="endArrow=classic;html=1;exitX=0;exitY=1;exitDx=0;exitDy=0;entryX=1;entryY=0;entryDx=0;entryDy=0;" parent="1" source="E7qCEXml-a51oX7vlCE2-53" target="E7qCEXml-a51oX7vlCE2-78" edge="1">
          <mxGeometry width="50" height="50" relative="1" as="geometry">
            <mxPoint x="520" y="640" as="sourcePoint" />
            <mxPoint x="570" y="590" as="targetPoint" />
          </mxGeometry>
        </mxCell>
        <mxCell id="E7qCEXml-a51oX7vlCE2-82" value="" style="endArrow=classic;html=1;exitX=0;exitY=0.5;exitDx=0;exitDy=0;" parent="1" source="E7qCEXml-a51oX7vlCE2-64" target="E7qCEXml-a51oX7vlCE2-78" edge="1">
          <mxGeometry width="50" height="50" relative="1" as="geometry">
            <mxPoint x="520" y="640" as="sourcePoint" />
            <mxPoint x="570" y="590" as="targetPoint" />
          </mxGeometry>
        </mxCell>
      </root>
    </mxGraphModel>
  </diagram>
  <diagram id="HToF5nTK_kcJByFObgoN" name="计算流程图">
    <mxGraphModel dx="1357" dy="777" grid="1" gridSize="10" guides="1" tooltips="1" connect="1" arrows="1" fold="1" page="1" pageScale="1" pageWidth="1920" pageHeight="1200" math="0" shadow="0">
      <root>
        <mxCell id="ORhvWN5X6Y3SbwxktM73-0" />
        <mxCell id="ORhvWN5X6Y3SbwxktM73-1" parent="ORhvWN5X6Y3SbwxktM73-0" />
        <mxCell id="ilzft_eTim2J5GjeHKNy-498" style="edgeStyle=orthogonalEdgeStyle;curved=1;rounded=0;orthogonalLoop=1;jettySize=auto;html=1;" parent="ORhvWN5X6Y3SbwxktM73-1" source="ilzft_eTim2J5GjeHKNy-496" target="ilzft_eTim2J5GjeHKNy-497" edge="1">
          <mxGeometry relative="1" as="geometry" />
        </mxCell>
        <mxCell id="ilzft_eTim2J5GjeHKNy-499" value="消费" style="edgeLabel;html=1;align=center;verticalAlign=middle;resizable=0;points=[];" parent="ilzft_eTim2J5GjeHKNy-498" vertex="1" connectable="0">
          <mxGeometry x="0.2814" y="-4" relative="1" as="geometry">
            <mxPoint as="offset" />
          </mxGeometry>
        </mxCell>
        <mxCell id="ilzft_eTim2J5GjeHKNy-496" value="AI_MQ" style="strokeWidth=2;html=1;shape=mxgraph.flowchart.multi-document;whiteSpace=wrap;gradientColor=none;" parent="ORhvWN5X6Y3SbwxktM73-1" vertex="1">
          <mxGeometry x="110" y="590" width="88" height="70" as="geometry" />
        </mxCell>
        <mxCell id="ilzft_eTim2J5GjeHKNy-501" style="edgeStyle=orthogonalEdgeStyle;curved=1;rounded=0;orthogonalLoop=1;jettySize=auto;html=1;entryX=0.125;entryY=0.375;entryDx=0;entryDy=0;entryPerimeter=0;" parent="ORhvWN5X6Y3SbwxktM73-1" source="ilzft_eTim2J5GjeHKNy-497" target="ilzft_eTim2J5GjeHKNy-500" edge="1">
          <mxGeometry relative="1" as="geometry" />
        </mxCell>
        <mxCell id="ilzft_eTim2J5GjeHKNy-502" value="将Message转为AITask" style="edgeLabel;html=1;align=center;verticalAlign=middle;resizable=0;points=[];" parent="ilzft_eTim2J5GjeHKNy-501" vertex="1" connectable="0">
          <mxGeometry x="-0.3571" y="-8" relative="1" as="geometry">
            <mxPoint as="offset" />
          </mxGeometry>
        </mxCell>
        <mxCell id="ilzft_eTim2J5GjeHKNy-497" value="AIMsg&lt;br&gt;Consumer" style="ellipse;shape=umlControl;whiteSpace=wrap;html=1;strokeColor=#000000;gradientColor=none;" parent="ORhvWN5X6Y3SbwxktM73-1" vertex="1">
          <mxGeometry x="270" y="480" width="70" height="80" as="geometry" />
        </mxCell>
        <mxCell id="ilzft_eTim2J5GjeHKNy-505" style="edgeStyle=orthogonalEdgeStyle;curved=1;rounded=0;orthogonalLoop=1;jettySize=auto;html=1;entryX=0.014;entryY=0.588;entryDx=0;entryDy=0;entryPerimeter=0;" parent="ORhvWN5X6Y3SbwxktM73-1" source="ilzft_eTim2J5GjeHKNy-500" target="ilzft_eTim2J5GjeHKNy-504" edge="1">
          <mxGeometry relative="1" as="geometry" />
        </mxCell>
        <mxCell id="ilzft_eTim2J5GjeHKNy-507" value="消费" style="edgeLabel;html=1;align=center;verticalAlign=middle;resizable=0;points=[];" parent="ilzft_eTim2J5GjeHKNy-505" vertex="1" connectable="0">
          <mxGeometry x="-0.1971" y="21" relative="1" as="geometry">
            <mxPoint as="offset" />
          </mxGeometry>
        </mxCell>
        <mxCell id="ilzft_eTim2J5GjeHKNy-500" value="OfflineTask&lt;br&gt;Queue" style="ellipse;shape=umlEntity;whiteSpace=wrap;html=1;strokeColor=#000000;gradientColor=none;" parent="ORhvWN5X6Y3SbwxktM73-1" vertex="1">
          <mxGeometry x="430" y="580" width="80" height="80" as="geometry" />
        </mxCell>
        <mxCell id="ilzft_eTim2J5GjeHKNy-509" style="edgeStyle=orthogonalEdgeStyle;curved=1;rounded=0;orthogonalLoop=1;jettySize=auto;html=1;" parent="ORhvWN5X6Y3SbwxktM73-1" source="ilzft_eTim2J5GjeHKNy-504" target="ilzft_eTim2J5GjeHKNy-508" edge="1">
          <mxGeometry relative="1" as="geometry" />
        </mxCell>
        <mxCell id="ilzft_eTim2J5GjeHKNy-510" value="Task转为WorkflowGraph" style="edgeLabel;html=1;align=center;verticalAlign=middle;resizable=0;points=[];" parent="ilzft_eTim2J5GjeHKNy-509" vertex="1" connectable="0">
          <mxGeometry x="-0.0923" y="-7" relative="1" as="geometry">
            <mxPoint x="11" y="13" as="offset" />
          </mxGeometry>
        </mxCell>
        <mxCell id="ilzft_eTim2J5GjeHKNy-504" value="OfflineTask&lt;br&gt;ProcessThread" style="ellipse;shape=umlControl;whiteSpace=wrap;html=1;strokeColor=#000000;gradientColor=none;" parent="ORhvWN5X6Y3SbwxktM73-1" vertex="1">
          <mxGeometry x="570" y="480" width="100" height="80" as="geometry" />
        </mxCell>
        <mxCell id="ilzft_eTim2J5GjeHKNy-618" style="edgeStyle=orthogonalEdgeStyle;curved=1;rounded=0;orthogonalLoop=1;jettySize=auto;html=1;exitX=0;exitY=1;exitDx=0;exitDy=0;endArrow=classicThin;endFill=0;entryX=0;entryY=0.75;entryDx=0;entryDy=0;" parent="ORhvWN5X6Y3SbwxktM73-1" source="ilzft_eTim2J5GjeHKNy-508" target="ilzft_eTim2J5GjeHKNy-516" edge="1">
          <mxGeometry relative="1" as="geometry">
            <mxPoint x="690" y="690" as="targetPoint" />
          </mxGeometry>
        </mxCell>
        <mxCell id="ilzft_eTim2J5GjeHKNy-619" value="状态回溯，所有Node完成，Graph结束" style="edgeLabel;html=1;align=center;verticalAlign=middle;resizable=0;points=[];" parent="ilzft_eTim2J5GjeHKNy-618" vertex="1" connectable="0">
          <mxGeometry x="-0.2602" y="7" relative="1" as="geometry">
            <mxPoint x="-97" y="68" as="offset" />
          </mxGeometry>
        </mxCell>
        <mxCell id="ilzft_eTim2J5GjeHKNy-508" value="AIGraph&lt;br&gt;Queue" style="ellipse;shape=umlEntity;whiteSpace=wrap;html=1;strokeColor=#000000;gradientColor=none;" parent="ORhvWN5X6Y3SbwxktM73-1" vertex="1">
          <mxGeometry x="740" y="580" width="80" height="80" as="geometry" />
        </mxCell>
        <mxCell id="ilzft_eTim2J5GjeHKNy-511" value="1. 判断is_depth_splitable,决定是否进行深度拆分（目前以series为单位进行）；&lt;br&gt;2. GraphQueue存在容量上限（此为可配置项），此上限决定了可以同时计算的数据数量（目前通常以与GPU个数相同）；&lt;br&gt;3. &lt;b&gt;如果GraphQueue已达上限，这里将会等待，也就是计算排队；&lt;/b&gt;" style="shape=callout;whiteSpace=wrap;html=1;perimeter=calloutPerimeter;strokeColor=#000000;gradientColor=none;" parent="ORhvWN5X6Y3SbwxktM73-1" vertex="1">
          <mxGeometry x="720" y="370" width="180" height="170" as="geometry" />
        </mxCell>
        <mxCell id="ilzft_eTim2J5GjeHKNy-519" style="edgeStyle=orthogonalEdgeStyle;curved=1;rounded=0;orthogonalLoop=1;jettySize=auto;html=1;" parent="ORhvWN5X6Y3SbwxktM73-1" source="ilzft_eTim2J5GjeHKNy-512" target="ilzft_eTim2J5GjeHKNy-518" edge="1">
          <mxGeometry relative="1" as="geometry" />
        </mxCell>
        <mxCell id="ilzft_eTim2J5GjeHKNy-520" value="将可执行节点转化为可执行单元" style="edgeLabel;html=1;align=center;verticalAlign=middle;resizable=0;points=[];" parent="ilzft_eTim2J5GjeHKNy-519" vertex="1" connectable="0">
          <mxGeometry x="-0.2364" y="-4" relative="1" as="geometry">
            <mxPoint x="49" y="-9" as="offset" />
          </mxGeometry>
        </mxCell>
        <mxCell id="ilzft_eTim2J5GjeHKNy-512" value="GraphProcess&lt;br&gt;Thread" style="ellipse;shape=umlControl;whiteSpace=wrap;html=1;strokeColor=#000000;gradientColor=none;" parent="ORhvWN5X6Y3SbwxktM73-1" vertex="1">
          <mxGeometry x="930" y="510" width="90" height="90" as="geometry" />
        </mxCell>
        <mxCell id="ilzft_eTim2J5GjeHKNy-526" style="edgeStyle=orthogonalEdgeStyle;curved=1;rounded=0;orthogonalLoop=1;jettySize=auto;html=1;" parent="ORhvWN5X6Y3SbwxktM73-1" source="ilzft_eTim2J5GjeHKNy-518" target="ilzft_eTim2J5GjeHKNy-524" edge="1">
          <mxGeometry relative="1" as="geometry" />
        </mxCell>
        <mxCell id="ilzft_eTim2J5GjeHKNy-527" value="消费" style="edgeLabel;html=1;align=center;verticalAlign=middle;resizable=0;points=[];" parent="ilzft_eTim2J5GjeHKNy-526" vertex="1" connectable="0">
          <mxGeometry x="-0.2" y="5" relative="1" as="geometry">
            <mxPoint as="offset" />
          </mxGeometry>
        </mxCell>
        <mxCell id="ilzft_eTim2J5GjeHKNy-616" style="edgeStyle=orthogonalEdgeStyle;curved=1;rounded=0;orthogonalLoop=1;jettySize=auto;html=1;exitX=0;exitY=1;exitDx=0;exitDy=0;entryX=0.5;entryY=1;entryDx=0;entryDy=0;endArrow=classicThin;endFill=0;" parent="ORhvWN5X6Y3SbwxktM73-1" source="ilzft_eTim2J5GjeHKNy-518" target="ilzft_eTim2J5GjeHKNy-508" edge="1">
          <mxGeometry relative="1" as="geometry" />
        </mxCell>
        <mxCell id="ilzft_eTim2J5GjeHKNy-617" value="所有Unit计算完成，ExecNode状态回溯" style="edgeLabel;html=1;align=center;verticalAlign=middle;resizable=0;points=[];" parent="ilzft_eTim2J5GjeHKNy-616" vertex="1" connectable="0">
          <mxGeometry x="0.1714" y="-5" relative="1" as="geometry">
            <mxPoint x="52" y="-15" as="offset" />
          </mxGeometry>
        </mxCell>
        <mxCell id="ilzft_eTim2J5GjeHKNy-518" value="ExecutionUnit&lt;br&gt;Queue" style="ellipse;shape=umlEntity;whiteSpace=wrap;html=1;strokeColor=#000000;gradientColor=none;" parent="ORhvWN5X6Y3SbwxktM73-1" vertex="1">
          <mxGeometry x="1110" y="580" width="80" height="80" as="geometry" />
        </mxCell>
        <mxCell id="ilzft_eTim2J5GjeHKNy-522" value="" style="group" parent="ORhvWN5X6Y3SbwxktM73-1" vertex="1" connectable="0">
          <mxGeometry x="730" y="610" width="170" height="250" as="geometry" />
        </mxCell>
        <mxCell id="ilzft_eTim2J5GjeHKNy-516" value="1. Graph是一个DAG（有向无环图），基于模块间依赖关系建立。&lt;br&gt;2. 消费过程与正常的Message消费不同，每次pop出来的是Graph中的RunnableNodes，可执行节点。&lt;br&gt;3. 当Graph中没有可执行节点时，Graph执行结束，真正从Queue中Remove掉。" style="rounded=1;whiteSpace=wrap;html=1;strokeColor=#000000;gradientColor=none;align=center;" parent="ilzft_eTim2J5GjeHKNy-522" vertex="1">
          <mxGeometry y="80" width="170" height="170" as="geometry" />
        </mxCell>
        <mxCell id="ilzft_eTim2J5GjeHKNy-513" style="edgeStyle=orthogonalEdgeStyle;curved=1;rounded=0;orthogonalLoop=1;jettySize=auto;html=1;" parent="ilzft_eTim2J5GjeHKNy-522" source="ilzft_eTim2J5GjeHKNy-508" target="ilzft_eTim2J5GjeHKNy-512" edge="1">
          <mxGeometry x="150" as="geometry" />
        </mxCell>
        <mxCell id="ilzft_eTim2J5GjeHKNy-515" value="消费" style="edgeLabel;html=1;align=center;verticalAlign=middle;resizable=0;points=[];" parent="ilzft_eTim2J5GjeHKNy-513" vertex="1" connectable="0">
          <mxGeometry x="-0.2216" y="3" relative="1" as="geometry">
            <mxPoint x="8" y="-13" as="offset" />
          </mxGeometry>
        </mxCell>
        <mxCell id="ilzft_eTim2J5GjeHKNy-517" style="rounded=0;orthogonalLoop=1;jettySize=auto;html=1;edgeStyle=orthogonalEdgeStyle;curved=1;shape=arrow;" parent="ilzft_eTim2J5GjeHKNy-522" source="ilzft_eTim2J5GjeHKNy-516" edge="1">
          <mxGeometry x="150" as="geometry">
            <mxPoint x="150" y="-10" as="targetPoint" />
          </mxGeometry>
        </mxCell>
        <mxCell id="ilzft_eTim2J5GjeHKNy-523" value="1. 可执行节点是指依赖节点已计算完成的节点，单次pop可以同时多个；&lt;br&gt;2. 转为可执行单元的过程是指数据根据算法输入的横向配对拆分，比如：同一study下3个series，则对于bodypart模块，可以拆分为3个可并行计算的执行单元；&lt;br&gt;" style="shape=callout;whiteSpace=wrap;html=1;perimeter=calloutPerimeter;strokeColor=#000000;gradientColor=none;align=center;position2=0.33;size=30;position=0.38;base=19;" parent="ORhvWN5X6Y3SbwxktM73-1" vertex="1">
          <mxGeometry x="1060" y="370" width="200" height="180" as="geometry" />
        </mxCell>
        <mxCell id="ilzft_eTim2J5GjeHKNy-528" style="edgeStyle=orthogonalEdgeStyle;curved=1;rounded=0;orthogonalLoop=1;jettySize=auto;html=1;entryX=0;entryY=0.5;entryDx=0;entryDy=0;" parent="ORhvWN5X6Y3SbwxktM73-1" source="ilzft_eTim2J5GjeHKNy-524" target="ilzft_eTim2J5GjeHKNy-525" edge="1">
          <mxGeometry relative="1" as="geometry" />
        </mxCell>
        <mxCell id="ilzft_eTim2J5GjeHKNy-529" value="根据计算负载，分发计算单元" style="edgeLabel;html=1;align=center;verticalAlign=middle;resizable=0;points=[];" parent="ilzft_eTim2J5GjeHKNy-528" vertex="1" connectable="0">
          <mxGeometry x="-0.344" y="-4" relative="1" as="geometry">
            <mxPoint x="49" y="12" as="offset" />
          </mxGeometry>
        </mxCell>
        <mxCell id="ilzft_eTim2J5GjeHKNy-524" value="ExecUnit&lt;br&gt;DispatchThread" style="ellipse;shape=umlControl;whiteSpace=wrap;html=1;strokeColor=#000000;gradientColor=none;" parent="ORhvWN5X6Y3SbwxktM73-1" vertex="1">
          <mxGeometry x="1290" y="500" width="90" height="90" as="geometry" />
        </mxCell>
        <mxCell id="ilzft_eTim2J5GjeHKNy-532" style="rounded=0;orthogonalLoop=1;jettySize=auto;html=1;entryX=0.5;entryY=0;entryDx=0;entryDy=0;edgeStyle=orthogonalEdgeStyle;curved=1;shape=link;" parent="ORhvWN5X6Y3SbwxktM73-1" source="ilzft_eTim2J5GjeHKNy-525" target="ilzft_eTim2J5GjeHKNy-531" edge="1">
          <mxGeometry relative="1" as="geometry" />
        </mxCell>
        <mxCell id="ilzft_eTim2J5GjeHKNy-525" value="ExecThreadInfo" style="ellipse;shape=umlEntity;whiteSpace=wrap;html=1;strokeColor=#000000;gradientColor=none;" parent="ORhvWN5X6Y3SbwxktM73-1" vertex="1">
          <mxGeometry x="1450" y="580" width="100" height="80" as="geometry" />
        </mxCell>
        <mxCell id="ilzft_eTim2J5GjeHKNy-530" value="&lt;b&gt;如果当前没有空闲资源，将会等待&lt;/b&gt;" style="shape=callout;whiteSpace=wrap;html=1;perimeter=calloutPerimeter;strokeColor=#000000;gradientColor=none;align=center;" parent="ORhvWN5X6Y3SbwxktM73-1" vertex="1">
          <mxGeometry x="1390" y="470" width="120" height="80" as="geometry" />
        </mxCell>
        <mxCell id="ilzft_eTim2J5GjeHKNy-614" style="edgeStyle=orthogonalEdgeStyle;curved=1;rounded=0;orthogonalLoop=1;jettySize=auto;html=1;exitX=0;exitY=0.5;exitDx=0;exitDy=0;endArrow=classicThin;endFill=0;" parent="ORhvWN5X6Y3SbwxktM73-1" source="ilzft_eTim2J5GjeHKNy-531" edge="1">
          <mxGeometry relative="1" as="geometry">
            <mxPoint x="1150" y="660" as="targetPoint" />
          </mxGeometry>
        </mxCell>
        <mxCell id="ilzft_eTim2J5GjeHKNy-615" value="ExecUnit状态回溯" style="edgeLabel;html=1;align=center;verticalAlign=middle;resizable=0;points=[];" parent="ilzft_eTim2J5GjeHKNy-614" vertex="1" connectable="0">
          <mxGeometry x="0.307" y="-9" relative="1" as="geometry">
            <mxPoint y="-49" as="offset" />
          </mxGeometry>
        </mxCell>
        <mxCell id="ilzft_eTim2J5GjeHKNy-531" value="计算执行模型" style="swimlane;strokeColor=#000000;gradientColor=none;align=center;" parent="ORhvWN5X6Y3SbwxktM73-1" vertex="1">
          <mxGeometry x="1150" y="760" width="628" height="350" as="geometry">
            <mxRectangle x="1150" y="760" width="100" height="23" as="alternateBounds" />
          </mxGeometry>
        </mxCell>
        <mxCell id="ilzft_eTim2J5GjeHKNy-533" value="GPU1&lt;br&gt;" style="verticalAlign=top;align=left;spacingTop=8;spacingLeft=2;spacingRight=12;shape=cube;size=10;direction=south;fontStyle=4;html=1;strokeColor=#000000;gradientColor=none;" parent="ilzft_eTim2J5GjeHKNy-531" vertex="1">
          <mxGeometry x="48.25" y="280" width="70" height="50" as="geometry" />
        </mxCell>
        <mxCell id="ilzft_eTim2J5GjeHKNy-536" value="GPUn" style="verticalAlign=top;align=left;spacingTop=8;spacingLeft=2;spacingRight=12;shape=cube;size=10;direction=south;fontStyle=4;html=1;strokeColor=#000000;gradientColor=none;" parent="ilzft_eTim2J5GjeHKNy-531" vertex="1">
          <mxGeometry x="482.5" y="280" width="70" height="50" as="geometry" />
        </mxCell>
        <mxCell id="ilzft_eTim2J5GjeHKNy-535" value="GPU2" style="verticalAlign=top;align=left;spacingTop=8;spacingLeft=2;spacingRight=12;shape=cube;size=10;direction=south;fontStyle=4;html=1;strokeColor=#000000;gradientColor=none;" parent="ilzft_eTim2J5GjeHKNy-531" vertex="1">
          <mxGeometry x="222" y="280" width="70" height="50" as="geometry" />
        </mxCell>
        <mxCell id="ilzft_eTim2J5GjeHKNy-548" style="rounded=0;orthogonalLoop=1;jettySize=auto;html=1;entryX=0.5;entryY=0;entryDx=0;entryDy=0;" parent="ilzft_eTim2J5GjeHKNy-531" source="ilzft_eTim2J5GjeHKNy-539" target="ilzft_eTim2J5GjeHKNy-544" edge="1">
          <mxGeometry relative="1" as="geometry" />
        </mxCell>
        <mxCell id="ilzft_eTim2J5GjeHKNy-539" value="Exec&lt;br&gt;Thrd 1" style="ellipse;shape=umlControl;whiteSpace=wrap;html=1;strokeColor=#000000;gradientColor=none;align=center;" parent="ilzft_eTim2J5GjeHKNy-531" vertex="1">
          <mxGeometry x="8.25" y="40" width="40" height="40" as="geometry" />
        </mxCell>
        <mxCell id="ilzft_eTim2J5GjeHKNy-549" style="edgeStyle=none;rounded=0;orthogonalLoop=1;jettySize=auto;html=1;entryX=0.5;entryY=0;entryDx=0;entryDy=0;" parent="ilzft_eTim2J5GjeHKNy-531" source="ilzft_eTim2J5GjeHKNy-540" target="ilzft_eTim2J5GjeHKNy-545" edge="1">
          <mxGeometry relative="1" as="geometry" />
        </mxCell>
        <mxCell id="ilzft_eTim2J5GjeHKNy-540" value="Exec&lt;br&gt;Thrd 2" style="ellipse;shape=umlControl;whiteSpace=wrap;html=1;strokeColor=#000000;gradientColor=none;align=center;" parent="ilzft_eTim2J5GjeHKNy-531" vertex="1">
          <mxGeometry x="60.25" y="40" width="40" height="40" as="geometry" />
        </mxCell>
        <mxCell id="ilzft_eTim2J5GjeHKNy-550" style="edgeStyle=none;rounded=0;orthogonalLoop=1;jettySize=auto;html=1;entryX=0.5;entryY=0;entryDx=0;entryDy=0;" parent="ilzft_eTim2J5GjeHKNy-531" source="ilzft_eTim2J5GjeHKNy-541" target="ilzft_eTim2J5GjeHKNy-546" edge="1">
          <mxGeometry relative="1" as="geometry" />
        </mxCell>
        <mxCell id="ilzft_eTim2J5GjeHKNy-541" value="Exec&lt;br&gt;Thrd i" style="ellipse;shape=umlControl;whiteSpace=wrap;html=1;strokeColor=#000000;gradientColor=none;align=center;" parent="ilzft_eTim2J5GjeHKNy-531" vertex="1">
          <mxGeometry x="128.25" y="40" width="40" height="40" as="geometry" />
        </mxCell>
        <mxCell id="ilzft_eTim2J5GjeHKNy-542" value="" style="endArrow=none;dashed=1;html=1;dashPattern=1 3;strokeWidth=2;" parent="ilzft_eTim2J5GjeHKNy-531" edge="1">
          <mxGeometry width="50" height="50" relative="1" as="geometry">
            <mxPoint x="103.25" y="61" as="sourcePoint" />
            <mxPoint x="128.25" y="61" as="targetPoint" />
          </mxGeometry>
        </mxCell>
        <mxCell id="ilzft_eTim2J5GjeHKNy-579" style="edgeStyle=none;rounded=0;orthogonalLoop=1;jettySize=auto;html=1;exitX=0.5;exitY=1;exitDx=0;exitDy=0;entryX=0.5;entryY=0;entryDx=0;entryDy=0;" parent="ilzft_eTim2J5GjeHKNy-531" source="ilzft_eTim2J5GjeHKNy-544" target="ilzft_eTim2J5GjeHKNy-578" edge="1">
          <mxGeometry relative="1" as="geometry" />
        </mxCell>
        <mxCell id="ilzft_eTim2J5GjeHKNy-544" value="Worker1" style="shape=process;whiteSpace=wrap;html=1;backgroundOutline=1;strokeColor=#000000;gradientColor=none;align=center;" parent="ilzft_eTim2J5GjeHKNy-531" vertex="1">
          <mxGeometry x="5.75" y="110" width="45" height="40" as="geometry" />
        </mxCell>
        <mxCell id="ilzft_eTim2J5GjeHKNy-583" style="edgeStyle=none;rounded=0;orthogonalLoop=1;jettySize=auto;html=1;entryX=0.5;entryY=0;entryDx=0;entryDy=0;" parent="ilzft_eTim2J5GjeHKNy-531" source="ilzft_eTim2J5GjeHKNy-545" target="ilzft_eTim2J5GjeHKNy-580" edge="1">
          <mxGeometry relative="1" as="geometry" />
        </mxCell>
        <mxCell id="ilzft_eTim2J5GjeHKNy-545" value="Worker2" style="shape=process;whiteSpace=wrap;html=1;backgroundOutline=1;strokeColor=#000000;gradientColor=none;align=center;" parent="ilzft_eTim2J5GjeHKNy-531" vertex="1">
          <mxGeometry x="57.75" y="110" width="45" height="40" as="geometry" />
        </mxCell>
        <mxCell id="ilzft_eTim2J5GjeHKNy-584" style="edgeStyle=none;rounded=0;orthogonalLoop=1;jettySize=auto;html=1;" parent="ilzft_eTim2J5GjeHKNy-531" source="ilzft_eTim2J5GjeHKNy-546" target="ilzft_eTim2J5GjeHKNy-581" edge="1">
          <mxGeometry relative="1" as="geometry" />
        </mxCell>
        <mxCell id="ilzft_eTim2J5GjeHKNy-546" value="Workeri" style="shape=process;whiteSpace=wrap;html=1;backgroundOutline=1;strokeColor=#000000;gradientColor=none;align=center;" parent="ilzft_eTim2J5GjeHKNy-531" vertex="1">
          <mxGeometry x="123.25" y="110" width="45" height="40" as="geometry" />
        </mxCell>
        <mxCell id="ilzft_eTim2J5GjeHKNy-547" value="" style="endArrow=none;dashed=1;html=1;dashPattern=1 3;strokeWidth=2;exitX=1;exitY=0.5;exitDx=0;exitDy=0;entryX=0;entryY=0.5;entryDx=0;entryDy=0;" parent="ilzft_eTim2J5GjeHKNy-531" source="ilzft_eTim2J5GjeHKNy-545" target="ilzft_eTim2J5GjeHKNy-546" edge="1">
          <mxGeometry width="50" height="50" relative="1" as="geometry">
            <mxPoint x="113.25" y="71" as="sourcePoint" />
            <mxPoint x="138.25" y="71" as="targetPoint" />
            <Array as="points" />
          </mxGeometry>
        </mxCell>
        <mxCell id="ilzft_eTim2J5GjeHKNy-551" style="rounded=0;orthogonalLoop=1;jettySize=auto;html=1;entryX=0.5;entryY=0;entryDx=0;entryDy=0;" parent="ilzft_eTim2J5GjeHKNy-531" source="ilzft_eTim2J5GjeHKNy-552" target="ilzft_eTim2J5GjeHKNy-558" edge="1">
          <mxGeometry relative="1" as="geometry" />
        </mxCell>
        <mxCell id="ilzft_eTim2J5GjeHKNy-552" value="Exec&lt;br&gt;Thrd 1" style="ellipse;shape=umlControl;whiteSpace=wrap;html=1;strokeColor=#000000;gradientColor=none;align=center;" parent="ilzft_eTim2J5GjeHKNy-531" vertex="1">
          <mxGeometry x="192.5" y="40" width="40" height="40" as="geometry" />
        </mxCell>
        <mxCell id="ilzft_eTim2J5GjeHKNy-553" style="edgeStyle=none;rounded=0;orthogonalLoop=1;jettySize=auto;html=1;entryX=0.5;entryY=0;entryDx=0;entryDy=0;" parent="ilzft_eTim2J5GjeHKNy-531" source="ilzft_eTim2J5GjeHKNy-554" target="ilzft_eTim2J5GjeHKNy-559" edge="1">
          <mxGeometry relative="1" as="geometry" />
        </mxCell>
        <mxCell id="ilzft_eTim2J5GjeHKNy-554" value="Exec&lt;br&gt;Thrd 2" style="ellipse;shape=umlControl;whiteSpace=wrap;html=1;strokeColor=#000000;gradientColor=none;align=center;" parent="ilzft_eTim2J5GjeHKNy-531" vertex="1">
          <mxGeometry x="244.5" y="40" width="40" height="40" as="geometry" />
        </mxCell>
        <mxCell id="ilzft_eTim2J5GjeHKNy-555" style="edgeStyle=none;rounded=0;orthogonalLoop=1;jettySize=auto;html=1;entryX=0.5;entryY=0;entryDx=0;entryDy=0;" parent="ilzft_eTim2J5GjeHKNy-531" source="ilzft_eTim2J5GjeHKNy-556" target="ilzft_eTim2J5GjeHKNy-560" edge="1">
          <mxGeometry relative="1" as="geometry" />
        </mxCell>
        <mxCell id="ilzft_eTim2J5GjeHKNy-556" value="Exec&lt;br&gt;Thrd i" style="ellipse;shape=umlControl;whiteSpace=wrap;html=1;strokeColor=#000000;gradientColor=none;align=center;" parent="ilzft_eTim2J5GjeHKNy-531" vertex="1">
          <mxGeometry x="312.5" y="40" width="40" height="40" as="geometry" />
        </mxCell>
        <mxCell id="ilzft_eTim2J5GjeHKNy-557" value="" style="endArrow=none;dashed=1;html=1;dashPattern=1 3;strokeWidth=2;" parent="ilzft_eTim2J5GjeHKNy-531" edge="1">
          <mxGeometry width="50" height="50" relative="1" as="geometry">
            <mxPoint x="287.5" y="61" as="sourcePoint" />
            <mxPoint x="312.5" y="61" as="targetPoint" />
          </mxGeometry>
        </mxCell>
        <mxCell id="ilzft_eTim2J5GjeHKNy-593" style="edgeStyle=none;rounded=0;orthogonalLoop=1;jettySize=auto;html=1;entryX=0.463;entryY=0;entryDx=0;entryDy=0;entryPerimeter=0;" parent="ilzft_eTim2J5GjeHKNy-531" source="ilzft_eTim2J5GjeHKNy-558" target="ilzft_eTim2J5GjeHKNy-587" edge="1">
          <mxGeometry relative="1" as="geometry" />
        </mxCell>
        <mxCell id="ilzft_eTim2J5GjeHKNy-558" value="Worker1" style="shape=process;whiteSpace=wrap;html=1;backgroundOutline=1;strokeColor=#000000;gradientColor=none;align=center;" parent="ilzft_eTim2J5GjeHKNy-531" vertex="1">
          <mxGeometry x="190" y="110" width="45" height="40" as="geometry" />
        </mxCell>
        <mxCell id="ilzft_eTim2J5GjeHKNy-594" style="edgeStyle=none;rounded=0;orthogonalLoop=1;jettySize=auto;html=1;entryX=0.5;entryY=0;entryDx=0;entryDy=0;" parent="ilzft_eTim2J5GjeHKNy-531" source="ilzft_eTim2J5GjeHKNy-559" target="ilzft_eTim2J5GjeHKNy-589" edge="1">
          <mxGeometry relative="1" as="geometry" />
        </mxCell>
        <mxCell id="ilzft_eTim2J5GjeHKNy-559" value="Worker2" style="shape=process;whiteSpace=wrap;html=1;backgroundOutline=1;strokeColor=#000000;gradientColor=none;align=center;" parent="ilzft_eTim2J5GjeHKNy-531" vertex="1">
          <mxGeometry x="242" y="110" width="45" height="40" as="geometry" />
        </mxCell>
        <mxCell id="ilzft_eTim2J5GjeHKNy-595" style="edgeStyle=none;rounded=0;orthogonalLoop=1;jettySize=auto;html=1;entryX=0.5;entryY=0;entryDx=0;entryDy=0;" parent="ilzft_eTim2J5GjeHKNy-531" source="ilzft_eTim2J5GjeHKNy-560" target="ilzft_eTim2J5GjeHKNy-588" edge="1">
          <mxGeometry relative="1" as="geometry" />
        </mxCell>
        <mxCell id="ilzft_eTim2J5GjeHKNy-560" value="Workeri" style="shape=process;whiteSpace=wrap;html=1;backgroundOutline=1;strokeColor=#000000;gradientColor=none;align=center;" parent="ilzft_eTim2J5GjeHKNy-531" vertex="1">
          <mxGeometry x="307.5" y="110" width="45" height="40" as="geometry" />
        </mxCell>
        <mxCell id="ilzft_eTim2J5GjeHKNy-561" value="" style="endArrow=none;dashed=1;html=1;dashPattern=1 3;strokeWidth=2;exitX=1;exitY=0.5;exitDx=0;exitDy=0;entryX=0;entryY=0.5;entryDx=0;entryDy=0;" parent="ilzft_eTim2J5GjeHKNy-531" source="ilzft_eTim2J5GjeHKNy-559" target="ilzft_eTim2J5GjeHKNy-560" edge="1">
          <mxGeometry width="50" height="50" relative="1" as="geometry">
            <mxPoint x="-942.5" y="-679" as="sourcePoint" />
            <mxPoint x="-917.5" y="-679" as="targetPoint" />
            <Array as="points" />
          </mxGeometry>
        </mxCell>
        <mxCell id="ilzft_eTim2J5GjeHKNy-573" value="" style="line;strokeWidth=1;direction=south;html=1;gradientColor=none;align=center;" parent="ilzft_eTim2J5GjeHKNy-531" vertex="1">
          <mxGeometry x="170" y="24" width="10" height="326" as="geometry" />
        </mxCell>
        <mxCell id="ilzft_eTim2J5GjeHKNy-575" value="" style="line;strokeWidth=1;direction=south;html=1;gradientColor=none;align=center;" parent="ilzft_eTim2J5GjeHKNy-531" vertex="1">
          <mxGeometry x="370" y="24" width="10" height="326" as="geometry" />
        </mxCell>
        <mxCell id="ilzft_eTim2J5GjeHKNy-568" value="" style="endArrow=none;dashed=1;html=1;dashPattern=1 3;strokeWidth=2;" parent="ilzft_eTim2J5GjeHKNy-531" edge="1">
          <mxGeometry width="50" height="50" relative="1" as="geometry">
            <mxPoint x="537.5" y="61" as="sourcePoint" />
            <mxPoint x="562.5" y="61" as="targetPoint" />
          </mxGeometry>
        </mxCell>
        <mxCell id="ilzft_eTim2J5GjeHKNy-563" value="Exec&lt;br&gt;Thrd 1" style="ellipse;shape=umlControl;whiteSpace=wrap;html=1;strokeColor=#000000;gradientColor=none;align=center;" parent="ilzft_eTim2J5GjeHKNy-531" vertex="1">
          <mxGeometry x="442.5" y="40" width="40" height="40" as="geometry" />
        </mxCell>
        <mxCell id="ilzft_eTim2J5GjeHKNy-565" value="Exec&lt;br&gt;Thrd 2" style="ellipse;shape=umlControl;whiteSpace=wrap;html=1;strokeColor=#000000;gradientColor=none;align=center;" parent="ilzft_eTim2J5GjeHKNy-531" vertex="1">
          <mxGeometry x="494.5" y="40" width="40" height="40" as="geometry" />
        </mxCell>
        <mxCell id="ilzft_eTim2J5GjeHKNy-567" value="Exec&lt;br&gt;Thrd i" style="ellipse;shape=umlControl;whiteSpace=wrap;html=1;strokeColor=#000000;gradientColor=none;align=center;" parent="ilzft_eTim2J5GjeHKNy-531" vertex="1">
          <mxGeometry x="562.5" y="40" width="40" height="40" as="geometry" />
        </mxCell>
        <mxCell id="ilzft_eTim2J5GjeHKNy-596" style="edgeStyle=none;rounded=0;orthogonalLoop=1;jettySize=auto;html=1;entryX=0.5;entryY=0;entryDx=0;entryDy=0;" parent="ilzft_eTim2J5GjeHKNy-531" source="ilzft_eTim2J5GjeHKNy-569" target="ilzft_eTim2J5GjeHKNy-590" edge="1">
          <mxGeometry relative="1" as="geometry" />
        </mxCell>
        <mxCell id="ilzft_eTim2J5GjeHKNy-569" value="Worker1" style="shape=process;whiteSpace=wrap;html=1;backgroundOutline=1;strokeColor=#000000;gradientColor=none;align=center;" parent="ilzft_eTim2J5GjeHKNy-531" vertex="1">
          <mxGeometry x="440" y="110" width="45" height="40" as="geometry" />
        </mxCell>
        <mxCell id="ilzft_eTim2J5GjeHKNy-562" style="rounded=0;orthogonalLoop=1;jettySize=auto;html=1;entryX=0.5;entryY=0;entryDx=0;entryDy=0;" parent="ilzft_eTim2J5GjeHKNy-531" source="ilzft_eTim2J5GjeHKNy-563" target="ilzft_eTim2J5GjeHKNy-569" edge="1">
          <mxGeometry relative="1" as="geometry" />
        </mxCell>
        <mxCell id="ilzft_eTim2J5GjeHKNy-598" style="edgeStyle=none;rounded=0;orthogonalLoop=1;jettySize=auto;html=1;entryX=0.5;entryY=0;entryDx=0;entryDy=0;" parent="ilzft_eTim2J5GjeHKNy-531" source="ilzft_eTim2J5GjeHKNy-571" target="ilzft_eTim2J5GjeHKNy-591" edge="1">
          <mxGeometry relative="1" as="geometry" />
        </mxCell>
        <mxCell id="ilzft_eTim2J5GjeHKNy-571" value="Workeri" style="shape=process;whiteSpace=wrap;html=1;backgroundOutline=1;strokeColor=#000000;gradientColor=none;align=center;" parent="ilzft_eTim2J5GjeHKNy-531" vertex="1">
          <mxGeometry x="557.5" y="110" width="45" height="40" as="geometry" />
        </mxCell>
        <mxCell id="ilzft_eTim2J5GjeHKNy-566" style="edgeStyle=none;rounded=0;orthogonalLoop=1;jettySize=auto;html=1;entryX=0.5;entryY=0;entryDx=0;entryDy=0;" parent="ilzft_eTim2J5GjeHKNy-531" source="ilzft_eTim2J5GjeHKNy-567" target="ilzft_eTim2J5GjeHKNy-571" edge="1">
          <mxGeometry relative="1" as="geometry" />
        </mxCell>
        <mxCell id="ilzft_eTim2J5GjeHKNy-597" style="edgeStyle=none;rounded=0;orthogonalLoop=1;jettySize=auto;html=1;entryX=0.5;entryY=0;entryDx=0;entryDy=0;" parent="ilzft_eTim2J5GjeHKNy-531" source="ilzft_eTim2J5GjeHKNy-570" target="ilzft_eTim2J5GjeHKNy-592" edge="1">
          <mxGeometry relative="1" as="geometry" />
        </mxCell>
        <mxCell id="ilzft_eTim2J5GjeHKNy-570" value="Worker2" style="shape=process;whiteSpace=wrap;html=1;backgroundOutline=1;strokeColor=#000000;gradientColor=none;align=center;" parent="ilzft_eTim2J5GjeHKNy-531" vertex="1">
          <mxGeometry x="492" y="110" width="45" height="40" as="geometry" />
        </mxCell>
        <mxCell id="ilzft_eTim2J5GjeHKNy-564" style="edgeStyle=none;rounded=0;orthogonalLoop=1;jettySize=auto;html=1;entryX=0.5;entryY=0;entryDx=0;entryDy=0;" parent="ilzft_eTim2J5GjeHKNy-531" source="ilzft_eTim2J5GjeHKNy-565" target="ilzft_eTim2J5GjeHKNy-570" edge="1">
          <mxGeometry relative="1" as="geometry" />
        </mxCell>
        <mxCell id="ilzft_eTim2J5GjeHKNy-572" value="" style="endArrow=none;dashed=1;html=1;dashPattern=1 3;strokeWidth=2;exitX=1;exitY=0.5;exitDx=0;exitDy=0;entryX=0;entryY=0.5;entryDx=0;entryDy=0;" parent="ilzft_eTim2J5GjeHKNy-531" source="ilzft_eTim2J5GjeHKNy-570" target="ilzft_eTim2J5GjeHKNy-571" edge="1">
          <mxGeometry width="50" height="50" relative="1" as="geometry">
            <mxPoint x="-1932.5" y="-1429" as="sourcePoint" />
            <mxPoint x="-1907.5" y="-1429" as="targetPoint" />
            <Array as="points" />
          </mxGeometry>
        </mxCell>
        <mxCell id="ilzft_eTim2J5GjeHKNy-577" value="" style="endArrow=none;dashed=1;html=1;dashPattern=1 3;strokeWidth=2;" parent="ilzft_eTim2J5GjeHKNy-531" edge="1">
          <mxGeometry width="50" height="50" relative="1" as="geometry">
            <mxPoint x="383" y="175" as="sourcePoint" />
            <mxPoint x="423" y="175" as="targetPoint" />
          </mxGeometry>
        </mxCell>
        <mxCell id="ilzft_eTim2J5GjeHKNy-601" style="edgeStyle=orthogonalEdgeStyle;rounded=0;orthogonalLoop=1;jettySize=auto;html=1;exitX=0.25;exitY=1;exitDx=0;exitDy=0;curved=1;" parent="ilzft_eTim2J5GjeHKNy-531" source="ilzft_eTim2J5GjeHKNy-578" edge="1">
          <mxGeometry relative="1" as="geometry">
            <mxPoint x="48" y="290" as="targetPoint" />
          </mxGeometry>
        </mxCell>
        <mxCell id="ilzft_eTim2J5GjeHKNy-578" value="AIJob 1" style="rounded=0;whiteSpace=wrap;html=1;strokeColor=#000000;strokeWidth=1;gradientColor=none;align=center;" parent="ilzft_eTim2J5GjeHKNy-531" vertex="1">
          <mxGeometry x="5.75" y="190" width="44.25" height="40" as="geometry" />
        </mxCell>
        <mxCell id="ilzft_eTim2J5GjeHKNy-603" style="edgeStyle=orthogonalEdgeStyle;rounded=0;orthogonalLoop=1;jettySize=auto;html=1;entryX=0;entryY=0;entryDx=0;entryDy=0;entryPerimeter=0;elbow=vertical;curved=1;exitX=0.75;exitY=1;exitDx=0;exitDy=0;" parent="ilzft_eTim2J5GjeHKNy-531" source="ilzft_eTim2J5GjeHKNy-581" target="ilzft_eTim2J5GjeHKNy-533" edge="1">
          <mxGeometry relative="1" as="geometry" />
        </mxCell>
        <mxCell id="ilzft_eTim2J5GjeHKNy-581" value="AIJob i" style="rounded=0;whiteSpace=wrap;html=1;strokeColor=#000000;strokeWidth=1;gradientColor=none;align=center;" parent="ilzft_eTim2J5GjeHKNy-531" vertex="1">
          <mxGeometry x="122" y="190" width="44.25" height="40" as="geometry" />
        </mxCell>
        <mxCell id="ilzft_eTim2J5GjeHKNy-602" style="edgeStyle=orthogonalEdgeStyle;rounded=0;orthogonalLoop=1;jettySize=auto;html=1;curved=1;" parent="ilzft_eTim2J5GjeHKNy-531" source="ilzft_eTim2J5GjeHKNy-580" target="ilzft_eTim2J5GjeHKNy-533" edge="1">
          <mxGeometry relative="1" as="geometry">
            <mxPoint x="80" y="280" as="targetPoint" />
          </mxGeometry>
        </mxCell>
        <mxCell id="ilzft_eTim2J5GjeHKNy-580" value="AIJob 2" style="rounded=0;whiteSpace=wrap;html=1;strokeColor=#000000;strokeWidth=1;gradientColor=none;align=center;" parent="ilzft_eTim2J5GjeHKNy-531" vertex="1">
          <mxGeometry x="57.75" y="190" width="44.25" height="40" as="geometry" />
        </mxCell>
        <mxCell id="ilzft_eTim2J5GjeHKNy-582" value="" style="endArrow=none;dashed=1;html=1;dashPattern=1 3;strokeWidth=2;exitX=1;exitY=0.5;exitDx=0;exitDy=0;entryX=0;entryY=0.5;entryDx=0;entryDy=0;" parent="ilzft_eTim2J5GjeHKNy-531" source="ilzft_eTim2J5GjeHKNy-580" target="ilzft_eTim2J5GjeHKNy-581" edge="1">
          <mxGeometry width="50" height="50" relative="1" as="geometry">
            <mxPoint x="112.75" y="140" as="sourcePoint" />
            <mxPoint x="133.25" y="140" as="targetPoint" />
            <Array as="points" />
          </mxGeometry>
        </mxCell>
        <mxCell id="ilzft_eTim2J5GjeHKNy-605" style="edgeStyle=orthogonalEdgeStyle;curved=1;rounded=0;orthogonalLoop=1;jettySize=auto;html=1;exitX=0.25;exitY=1;exitDx=0;exitDy=0;entryX=0.34;entryY=1.029;entryDx=0;entryDy=0;entryPerimeter=0;" parent="ilzft_eTim2J5GjeHKNy-531" source="ilzft_eTim2J5GjeHKNy-587" target="ilzft_eTim2J5GjeHKNy-535" edge="1">
          <mxGeometry relative="1" as="geometry" />
        </mxCell>
        <mxCell id="ilzft_eTim2J5GjeHKNy-587" value="AIJob 1" style="rounded=0;whiteSpace=wrap;html=1;strokeColor=#000000;strokeWidth=1;gradientColor=none;align=center;" parent="ilzft_eTim2J5GjeHKNy-531" vertex="1">
          <mxGeometry x="191" y="190" width="44.25" height="40" as="geometry" />
        </mxCell>
        <mxCell id="ilzft_eTim2J5GjeHKNy-607" style="edgeStyle=orthogonalEdgeStyle;curved=1;rounded=0;orthogonalLoop=1;jettySize=auto;html=1;exitX=0.5;exitY=1;exitDx=0;exitDy=0;entryX=0;entryY=0;entryDx=0;entryDy=0;entryPerimeter=0;" parent="ilzft_eTim2J5GjeHKNy-531" source="ilzft_eTim2J5GjeHKNy-588" target="ilzft_eTim2J5GjeHKNy-535" edge="1">
          <mxGeometry relative="1" as="geometry" />
        </mxCell>
        <mxCell id="ilzft_eTim2J5GjeHKNy-588" value="AIJob i" style="rounded=0;whiteSpace=wrap;html=1;strokeColor=#000000;strokeWidth=1;gradientColor=none;align=center;" parent="ilzft_eTim2J5GjeHKNy-531" vertex="1">
          <mxGeometry x="308.25" y="190" width="44.25" height="40" as="geometry" />
        </mxCell>
        <mxCell id="ilzft_eTim2J5GjeHKNy-606" style="edgeStyle=orthogonalEdgeStyle;curved=1;rounded=0;orthogonalLoop=1;jettySize=auto;html=1;exitX=0.5;exitY=1;exitDx=0;exitDy=0;entryX=0;entryY=0;entryDx=0;entryDy=30;entryPerimeter=0;" parent="ilzft_eTim2J5GjeHKNy-531" source="ilzft_eTim2J5GjeHKNy-589" target="ilzft_eTim2J5GjeHKNy-535" edge="1">
          <mxGeometry relative="1" as="geometry" />
        </mxCell>
        <mxCell id="ilzft_eTim2J5GjeHKNy-589" value="AIJob 2" style="rounded=0;whiteSpace=wrap;html=1;strokeColor=#000000;strokeWidth=1;gradientColor=none;align=center;" parent="ilzft_eTim2J5GjeHKNy-531" vertex="1">
          <mxGeometry x="243" y="190" width="44.25" height="40" as="geometry" />
        </mxCell>
        <mxCell id="ilzft_eTim2J5GjeHKNy-608" style="edgeStyle=orthogonalEdgeStyle;curved=1;rounded=0;orthogonalLoop=1;jettySize=auto;html=1;exitX=0.5;exitY=1;exitDx=0;exitDy=0;entryX=0.36;entryY=0.979;entryDx=0;entryDy=0;entryPerimeter=0;" parent="ilzft_eTim2J5GjeHKNy-531" source="ilzft_eTim2J5GjeHKNy-590" target="ilzft_eTim2J5GjeHKNy-536" edge="1">
          <mxGeometry relative="1" as="geometry" />
        </mxCell>
        <mxCell id="ilzft_eTim2J5GjeHKNy-590" value="AIJob 1" style="rounded=0;whiteSpace=wrap;html=1;strokeColor=#000000;strokeWidth=1;gradientColor=none;align=center;" parent="ilzft_eTim2J5GjeHKNy-531" vertex="1">
          <mxGeometry x="441" y="190" width="44.25" height="40" as="geometry" />
        </mxCell>
        <mxCell id="ilzft_eTim2J5GjeHKNy-610" style="edgeStyle=orthogonalEdgeStyle;curved=1;rounded=0;orthogonalLoop=1;jettySize=auto;html=1;exitX=0.5;exitY=1;exitDx=0;exitDy=0;entryX=0;entryY=0;entryDx=0;entryDy=0;entryPerimeter=0;" parent="ilzft_eTim2J5GjeHKNy-531" source="ilzft_eTim2J5GjeHKNy-591" target="ilzft_eTim2J5GjeHKNy-536" edge="1">
          <mxGeometry relative="1" as="geometry" />
        </mxCell>
        <mxCell id="ilzft_eTim2J5GjeHKNy-591" value="AIJob i" style="rounded=0;whiteSpace=wrap;html=1;strokeColor=#000000;strokeWidth=1;gradientColor=none;align=center;" parent="ilzft_eTim2J5GjeHKNy-531" vertex="1">
          <mxGeometry x="558.25" y="190" width="44.25" height="40" as="geometry" />
        </mxCell>
        <mxCell id="ilzft_eTim2J5GjeHKNy-609" style="edgeStyle=orthogonalEdgeStyle;curved=1;rounded=0;orthogonalLoop=1;jettySize=auto;html=1;exitX=0.5;exitY=1;exitDx=0;exitDy=0;entryX=0;entryY=0;entryDx=0;entryDy=30;entryPerimeter=0;" parent="ilzft_eTim2J5GjeHKNy-531" source="ilzft_eTim2J5GjeHKNy-592" target="ilzft_eTim2J5GjeHKNy-536" edge="1">
          <mxGeometry relative="1" as="geometry" />
        </mxCell>
        <mxCell id="ilzft_eTim2J5GjeHKNy-592" value="AIJob 2" style="rounded=0;whiteSpace=wrap;html=1;strokeColor=#000000;strokeWidth=1;gradientColor=none;align=center;" parent="ilzft_eTim2J5GjeHKNy-531" vertex="1">
          <mxGeometry x="493" y="190" width="44.25" height="40" as="geometry" />
        </mxCell>
        <mxCell id="ilzft_eTim2J5GjeHKNy-600" value="" style="endArrow=none;dashed=1;html=1;dashPattern=1 3;strokeWidth=2;exitX=1;exitY=0.5;exitDx=0;exitDy=0;entryX=0;entryY=0.5;entryDx=0;entryDy=0;" parent="ilzft_eTim2J5GjeHKNy-531" source="ilzft_eTim2J5GjeHKNy-592" target="ilzft_eTim2J5GjeHKNy-591" edge="1">
          <mxGeometry width="50" height="50" relative="1" as="geometry">
            <mxPoint x="547" y="140" as="sourcePoint" />
            <mxPoint x="567.5" y="140" as="targetPoint" />
            <Array as="points" />
          </mxGeometry>
        </mxCell>
        <mxCell id="ilzft_eTim2J5GjeHKNy-599" value="" style="endArrow=none;dashed=1;html=1;dashPattern=1 3;strokeWidth=2;entryX=0;entryY=0.5;entryDx=0;entryDy=0;" parent="ORhvWN5X6Y3SbwxktM73-1" edge="1">
          <mxGeometry width="50" height="50" relative="1" as="geometry">
            <mxPoint x="1439" y="970" as="sourcePoint" />
            <mxPoint x="1456.25" y="970" as="targetPoint" />
            <Array as="points" />
          </mxGeometry>
        </mxCell>
        <mxCell id="ilzft_eTim2J5GjeHKNy-613" style="edgeStyle=orthogonalEdgeStyle;curved=1;rounded=0;orthogonalLoop=1;jettySize=auto;html=1;entryX=0.019;entryY=0.825;entryDx=0;entryDy=0;shape=arrow;entryPerimeter=0;exitX=0.75;exitY=0;exitDx=0;exitDy=0;" parent="ORhvWN5X6Y3SbwxktM73-1" source="ilzft_eTim2J5GjeHKNy-612" target="ilzft_eTim2J5GjeHKNy-539" edge="1">
          <mxGeometry relative="1" as="geometry">
            <mxPoint x="1100" y="850" as="sourcePoint" />
          </mxGeometry>
        </mxCell>
        <mxCell id="ilzft_eTim2J5GjeHKNy-612" value="&lt;div style=&quot;text-align: left&quot;&gt;&lt;span&gt;1. i为单GPU上执行线程个数，此为配置项；&lt;/span&gt;&lt;/div&gt;&lt;div style=&quot;text-align: left&quot;&gt;&lt;span&gt;2. n为offline计算设备个数，也是配置项；&lt;/span&gt;&lt;/div&gt;&lt;div style=&quot;text-align: left&quot;&gt;&lt;span&gt;3. 每个ExecThread有一个ExecThreadInfo，最多承载两个Unit，一个为Running,另一个为Next；&lt;/span&gt;&lt;/div&gt;&lt;div style=&quot;text-align: left&quot;&gt;&lt;span&gt;4. Worker为单个进程，有AI计算运行环境；&lt;/span&gt;&lt;/div&gt;&lt;div style=&quot;text-align: left&quot;&gt;&lt;span&gt;5. Job为具体计算任务，每个Job对应一种模型集成；目前的Torch场景使用Python C接口调用python算法包；&lt;/span&gt;&lt;/div&gt;&lt;div style=&quot;text-align: left&quot;&gt;6. &lt;b&gt;需要注意&lt;/b&gt;，ExecThread会检查所属显卡负载，根据RunningUnit所需负载对比，如果不足，则会&lt;b&gt;等待计算资源释放；&lt;/b&gt;&lt;/div&gt;" style="rounded=1;whiteSpace=wrap;html=1;strokeColor=#000000;strokeWidth=1;gradientColor=none;align=center;" parent="ORhvWN5X6Y3SbwxktM73-1" vertex="1">
          <mxGeometry x="890" y="850" width="210" height="270" as="geometry" />
        </mxCell>
        <mxCell id="N4KH2-pl4-yDQ9GxQ7ds-0" value="" style="line;strokeWidth=1;direction=south;html=1;gradientColor=none;align=center;" vertex="1" parent="ORhvWN5X6Y3SbwxktM73-1">
          <mxGeometry x="1570" y="783" width="10" height="326" as="geometry" />
        </mxCell>
      </root>
    </mxGraphModel>
  </diagram>
  <diagram id="HErFCiMYb9NC0hIQkK8I" name="类图">
    <mxGraphModel dx="1357" dy="777" grid="1" gridSize="10" guides="1" tooltips="1" connect="1" arrows="1" fold="1" page="1" pageScale="1" pageWidth="1920" pageHeight="1200" math="0" shadow="0">
      <root>
        <mxCell id="u_y2yYAMa3JCngrs2_xj-0" />
        <mxCell id="u_y2yYAMa3JCngrs2_xj-1" parent="u_y2yYAMa3JCngrs2_xj-0" />
        <mxCell id="3uOBu90KWXw_YvpxLoa6-2" value="&lt;p style=&quot;margin: 0px ; margin-top: 4px ; text-align: center&quot;&gt;&lt;br&gt;&lt;b&gt;AppController&lt;/b&gt;&lt;/p&gt;" style="verticalAlign=top;align=left;overflow=fill;fontSize=12;fontFamily=Helvetica;html=1;" vertex="1" parent="u_y2yYAMa3JCngrs2_xj-1">
          <mxGeometry x="670" y="280" width="140" height="60" as="geometry" />
        </mxCell>
        <mxCell id="3uOBu90KWXw_YvpxLoa6-4" style="rounded=0;orthogonalLoop=1;jettySize=auto;html=1;entryX=0.5;entryY=0;entryDx=0;entryDy=0;endArrow=none;endFill=0;" edge="1" parent="u_y2yYAMa3JCngrs2_xj-1" source="3uOBu90KWXw_YvpxLoa6-3" target="3uOBu90KWXw_YvpxLoa6-2">
          <mxGeometry relative="1" as="geometry" />
        </mxCell>
        <mxCell id="3uOBu90KWXw_YvpxLoa6-3" value="" style="shape=requiredInterface;html=1;verticalLabelPosition=bottom;rotation=94;" vertex="1" parent="u_y2yYAMa3JCngrs2_xj-1">
          <mxGeometry x="772.31" y="227.85" width="15.01" height="30" as="geometry" />
        </mxCell>
        <mxCell id="3uOBu90KWXw_YvpxLoa6-7" value="IController" style="text;html=1;align=center;verticalAlign=middle;resizable=0;points=[];autosize=1;strokeColor=none;rotation=0;" vertex="1" parent="u_y2yYAMa3JCngrs2_xj-1">
          <mxGeometry x="750" y="220" width="70" height="20" as="geometry" />
        </mxCell>
        <mxCell id="3uOBu90KWXw_YvpxLoa6-14" value="" style="endArrow=block;endSize=16;endFill=0;html=1;entryX=0.25;entryY=1;entryDx=0;entryDy=0;exitX=0.75;exitY=0;exitDx=0;exitDy=0;" edge="1" parent="u_y2yYAMa3JCngrs2_xj-1" source="3uOBu90KWXw_YvpxLoa6-15" target="3uOBu90KWXw_YvpxLoa6-2">
          <mxGeometry x="0.2231" y="-16" width="160" relative="1" as="geometry">
            <mxPoint x="790" y="420" as="sourcePoint" />
            <mxPoint x="950" y="420" as="targetPoint" />
            <mxPoint as="offset" />
          </mxGeometry>
        </mxCell>
        <mxCell id="3uOBu90KWXw_YvpxLoa6-15" value="&lt;p style=&quot;margin: 0px ; margin-top: 4px ; text-align: center&quot;&gt;&lt;br&gt;&lt;b&gt;AIServerController&lt;/b&gt;&lt;/p&gt;" style="verticalAlign=top;align=left;overflow=fill;fontSize=12;fontFamily=Helvetica;html=1;" vertex="1" parent="u_y2yYAMa3JCngrs2_xj-1">
          <mxGeometry x="480" y="390" width="140" height="60" as="geometry" />
        </mxCell>
        <mxCell id="3uOBu90KWXw_YvpxLoa6-16" value="&lt;p style=&quot;margin: 0px ; margin-top: 4px ; text-align: center&quot;&gt;&lt;br&gt;&lt;b&gt;AIWorkerController&lt;/b&gt;&lt;/p&gt;" style="verticalAlign=top;align=left;overflow=fill;fontSize=12;fontFamily=Helvetica;html=1;" vertex="1" parent="u_y2yYAMa3JCngrs2_xj-1">
          <mxGeometry x="840" y="390" width="140" height="60" as="geometry" />
        </mxCell>
        <mxCell id="3uOBu90KWXw_YvpxLoa6-17" value="" style="endArrow=block;endSize=16;endFill=0;html=1;entryX=0.75;entryY=1;entryDx=0;entryDy=0;exitX=0.5;exitY=0;exitDx=0;exitDy=0;" edge="1" parent="u_y2yYAMa3JCngrs2_xj-1" source="3uOBu90KWXw_YvpxLoa6-16" target="3uOBu90KWXw_YvpxLoa6-2">
          <mxGeometry width="160" relative="1" as="geometry">
            <mxPoint x="790" y="420" as="sourcePoint" />
            <mxPoint x="950" y="420" as="targetPoint" />
          </mxGeometry>
        </mxCell>
        <mxCell id="3uOBu90KWXw_YvpxLoa6-18" value="&lt;p style=&quot;margin: 0px ; margin-top: 4px ; text-align: center&quot;&gt;&lt;br&gt;&lt;b&gt;IPCProxy&lt;/b&gt;&lt;/p&gt;" style="verticalAlign=top;align=left;overflow=fill;fontSize=12;fontFamily=Helvetica;html=1;" vertex="1" parent="u_y2yYAMa3JCngrs2_xj-1">
          <mxGeometry x="680" y="430" width="90" height="40" as="geometry" />
        </mxCell>
        <mxCell id="3uOBu90KWXw_YvpxLoa6-19" value="&lt;p style=&quot;margin: 0px ; margin-top: 4px ; text-align: center&quot;&gt;&lt;br&gt;&lt;b&gt;IPCClientProxy&lt;/b&gt;&lt;/p&gt;" style="verticalAlign=top;align=left;overflow=fill;fontSize=12;fontFamily=Helvetica;html=1;" vertex="1" parent="u_y2yYAMa3JCngrs2_xj-1">
          <mxGeometry x="760" y="510" width="140" height="50" as="geometry" />
        </mxCell>
        <mxCell id="3uOBu90KWXw_YvpxLoa6-20" value="&lt;p style=&quot;margin: 0px ; margin-top: 4px ; text-align: center&quot;&gt;&lt;br&gt;&lt;b&gt;IPCServerProxy&lt;/b&gt;&lt;/p&gt;" style="verticalAlign=top;align=left;overflow=fill;fontSize=12;fontFamily=Helvetica;html=1;" vertex="1" parent="u_y2yYAMa3JCngrs2_xj-1">
          <mxGeometry x="560" y="510" width="140" height="50" as="geometry" />
        </mxCell>
        <mxCell id="3uOBu90KWXw_YvpxLoa6-22" value="1" style="endArrow=none;html=1;endSize=12;startArrow=diamondThin;startSize=14;startFill=1;align=left;verticalAlign=bottom;exitX=0.75;exitY=1;exitDx=0;exitDy=0;entryX=0.5;entryY=0;entryDx=0;entryDy=0;endFill=0;" edge="1" parent="u_y2yYAMa3JCngrs2_xj-1" source="3uOBu90KWXw_YvpxLoa6-15" target="3uOBu90KWXw_YvpxLoa6-20">
          <mxGeometry x="-1" y="3" relative="1" as="geometry">
            <mxPoint x="540" y="490" as="sourcePoint" />
            <mxPoint x="700" y="490" as="targetPoint" />
          </mxGeometry>
        </mxCell>
        <mxCell id="3uOBu90KWXw_YvpxLoa6-23" value="" style="endArrow=block;endSize=16;endFill=0;html=1;entryX=0.5;entryY=1;entryDx=0;entryDy=0;exitX=0.75;exitY=0;exitDx=0;exitDy=0;" edge="1" parent="u_y2yYAMa3JCngrs2_xj-1" source="3uOBu90KWXw_YvpxLoa6-20" target="3uOBu90KWXw_YvpxLoa6-18">
          <mxGeometry x="0.2231" y="-16" width="160" relative="1" as="geometry">
            <mxPoint x="615" y="550" as="sourcePoint" />
            <mxPoint x="735" y="480" as="targetPoint" />
            <mxPoint as="offset" />
          </mxGeometry>
        </mxCell>
        <mxCell id="3uOBu90KWXw_YvpxLoa6-24" value="1" style="endArrow=none;html=1;endSize=12;startArrow=diamondThin;startSize=14;startFill=1;align=left;verticalAlign=bottom;exitX=0.25;exitY=1;exitDx=0;exitDy=0;entryX=0.5;entryY=0;entryDx=0;entryDy=0;endFill=0;" edge="1" parent="u_y2yYAMa3JCngrs2_xj-1" source="3uOBu90KWXw_YvpxLoa6-16" target="3uOBu90KWXw_YvpxLoa6-19">
          <mxGeometry x="-1" y="3" relative="1" as="geometry">
            <mxPoint x="880" y="470" as="sourcePoint" />
            <mxPoint x="925" y="530" as="targetPoint" />
          </mxGeometry>
        </mxCell>
        <mxCell id="3uOBu90KWXw_YvpxLoa6-25" value="" style="endArrow=block;endSize=16;endFill=0;html=1;entryX=0.75;entryY=1;entryDx=0;entryDy=0;exitX=0.25;exitY=0;exitDx=0;exitDy=0;" edge="1" parent="u_y2yYAMa3JCngrs2_xj-1" source="3uOBu90KWXw_YvpxLoa6-19" target="3uOBu90KWXw_YvpxLoa6-18">
          <mxGeometry x="0.2231" y="-16" width="160" relative="1" as="geometry">
            <mxPoint x="675" y="540" as="sourcePoint" />
            <mxPoint x="735" y="480" as="targetPoint" />
            <mxPoint as="offset" />
          </mxGeometry>
        </mxCell>
        <mxCell id="3uOBu90KWXw_YvpxLoa6-28" style="edgeStyle=none;rounded=0;orthogonalLoop=1;jettySize=auto;html=1;entryX=0;entryY=0.5;entryDx=0;entryDy=0;endArrow=open;endFill=0;startSize=6;dashed=1;dashPattern=1 4;" edge="1" parent="u_y2yYAMa3JCngrs2_xj-1" source="3uOBu90KWXw_YvpxLoa6-26" target="3uOBu90KWXw_YvpxLoa6-20">
          <mxGeometry relative="1" as="geometry" />
        </mxCell>
        <mxCell id="3uOBu90KWXw_YvpxLoa6-26" value="&lt;p style=&quot;margin: 0px ; margin-top: 4px ; text-align: center&quot;&gt;&lt;br&gt;&lt;b&gt;AIServerThreadModel&lt;/b&gt;&lt;/p&gt;" style="verticalAlign=top;align=left;overflow=fill;fontSize=12;fontFamily=Helvetica;html=1;" vertex="1" parent="u_y2yYAMa3JCngrs2_xj-1">
          <mxGeometry x="340" y="505" width="140" height="60" as="geometry" />
        </mxCell>
        <mxCell id="3uOBu90KWXw_YvpxLoa6-27" value="1" style="endArrow=none;html=1;endSize=12;startArrow=diamondThin;startSize=14;startFill=1;align=left;verticalAlign=bottom;exitX=0.25;exitY=1;exitDx=0;exitDy=0;entryX=0.75;entryY=0;entryDx=0;entryDy=0;endFill=0;" edge="1" parent="u_y2yYAMa3JCngrs2_xj-1" source="3uOBu90KWXw_YvpxLoa6-15" target="3uOBu90KWXw_YvpxLoa6-26">
          <mxGeometry x="-1" y="3" relative="1" as="geometry">
            <mxPoint x="500" y="480" as="sourcePoint" />
            <mxPoint x="545" y="520" as="targetPoint" />
          </mxGeometry>
        </mxCell>
        <mxCell id="3uOBu90KWXw_YvpxLoa6-29" value="&lt;p style=&quot;margin: 0px ; margin-top: 4px ; text-align: center&quot;&gt;&lt;br&gt;&lt;b&gt;AIWorkerThreadModel&lt;/b&gt;&lt;/p&gt;" style="verticalAlign=top;align=left;overflow=fill;fontSize=12;fontFamily=Helvetica;html=1;" vertex="1" parent="u_y2yYAMa3JCngrs2_xj-1">
          <mxGeometry x="970" y="505" width="140" height="60" as="geometry" />
        </mxCell>
        <mxCell id="3uOBu90KWXw_YvpxLoa6-30" style="edgeStyle=none;rounded=0;orthogonalLoop=1;jettySize=auto;html=1;entryX=1;entryY=0.5;entryDx=0;entryDy=0;endArrow=open;endFill=0;startSize=6;dashed=1;dashPattern=1 4;exitX=0;exitY=0.5;exitDx=0;exitDy=0;" edge="1" parent="u_y2yYAMa3JCngrs2_xj-1" source="3uOBu90KWXw_YvpxLoa6-29" target="3uOBu90KWXw_YvpxLoa6-19">
          <mxGeometry relative="1" as="geometry">
            <mxPoint x="910" y="599.9975" as="sourcePoint" />
            <mxPoint x="1000" y="602.81" as="targetPoint" />
          </mxGeometry>
        </mxCell>
        <mxCell id="3uOBu90KWXw_YvpxLoa6-31" value="1" style="endArrow=none;html=1;endSize=12;startArrow=diamondThin;startSize=14;startFill=1;align=left;verticalAlign=bottom;exitX=0.75;exitY=1;exitDx=0;exitDy=0;endFill=0;" edge="1" parent="u_y2yYAMa3JCngrs2_xj-1" source="3uOBu90KWXw_YvpxLoa6-16" target="3uOBu90KWXw_YvpxLoa6-29">
          <mxGeometry x="-1" y="3" relative="1" as="geometry">
            <mxPoint x="885" y="460" as="sourcePoint" />
            <mxPoint x="840" y="520" as="targetPoint" />
          </mxGeometry>
        </mxCell>
        <mxCell id="3uOBu90KWXw_YvpxLoa6-32" value="&lt;p style=&quot;margin: 0px ; margin-top: 4px ; text-align: center&quot;&gt;&lt;br&gt;&lt;b&gt;AIAlgJobBase&lt;/b&gt;&lt;/p&gt;" style="verticalAlign=top;align=left;overflow=fill;fontSize=12;fontFamily=Helvetica;html=1;" vertex="1" parent="u_y2yYAMa3JCngrs2_xj-1">
          <mxGeometry x="900" y="660" width="110" height="40" as="geometry" />
        </mxCell>
        <mxCell id="3uOBu90KWXw_YvpxLoa6-37" value="" style="endArrow=diamondThin;endFill=0;endSize=24;html=1;entryX=0.25;entryY=1;entryDx=0;entryDy=0;exitX=0.5;exitY=0;exitDx=0;exitDy=0;" edge="1" parent="u_y2yYAMa3JCngrs2_xj-1" source="3uOBu90KWXw_YvpxLoa6-32" target="3uOBu90KWXw_YvpxLoa6-29">
          <mxGeometry width="160" relative="1" as="geometry">
            <mxPoint x="660" y="580" as="sourcePoint" />
            <mxPoint x="820" y="580" as="targetPoint" />
          </mxGeometry>
        </mxCell>
        <mxCell id="3uOBu90KWXw_YvpxLoa6-38" value="&lt;p style=&quot;margin: 0px ; margin-top: 4px ; text-align: center&quot;&gt;&lt;br&gt;&lt;b&gt;AIJobCreator&lt;/b&gt;&lt;/p&gt;&lt;p style=&quot;margin: 0px ; margin-top: 4px ; text-align: center&quot;&gt;&lt;b&gt;&lt;br&gt;&lt;/b&gt;&lt;/p&gt;" style="verticalAlign=top;align=left;overflow=fill;fontSize=12;fontFamily=Helvetica;html=1;" vertex="1" parent="u_y2yYAMa3JCngrs2_xj-1">
          <mxGeometry x="1050" y="600" width="110" height="40" as="geometry" />
        </mxCell>
        <mxCell id="3uOBu90KWXw_YvpxLoa6-39" style="edgeStyle=none;rounded=0;orthogonalLoop=1;jettySize=auto;html=1;entryX=1;entryY=0.25;entryDx=0;entryDy=0;endArrow=open;endFill=0;startSize=6;dashed=1;dashPattern=1 4;exitX=0.25;exitY=1;exitDx=0;exitDy=0;" edge="1" parent="u_y2yYAMa3JCngrs2_xj-1" source="3uOBu90KWXw_YvpxLoa6-38" target="3uOBu90KWXw_YvpxLoa6-32">
          <mxGeometry relative="1" as="geometry">
            <mxPoint x="980" y="545" as="sourcePoint" />
            <mxPoint x="910" y="545" as="targetPoint" />
          </mxGeometry>
        </mxCell>
        <mxCell id="3uOBu90KWXw_YvpxLoa6-40" value="&lt;p style=&quot;margin: 0px ; margin-top: 4px ; text-align: center&quot;&gt;&lt;br&gt;&lt;b&gt;AIAlgJobBodyPartLocate&lt;/b&gt;&lt;/p&gt;" style="verticalAlign=top;align=left;overflow=fill;fontSize=12;fontFamily=Helvetica;html=1;" vertex="1" parent="u_y2yYAMa3JCngrs2_xj-1">
          <mxGeometry x="860" y="780" width="150" height="50" as="geometry" />
        </mxCell>
        <mxCell id="3uOBu90KWXw_YvpxLoa6-41" value="&lt;p style=&quot;margin: 0px ; margin-top: 4px ; text-align: center&quot;&gt;&lt;br&gt;&lt;b&gt;AIAlgJobNoduleSegment&lt;/b&gt;&lt;/p&gt;" style="verticalAlign=top;align=left;overflow=fill;fontSize=12;fontFamily=Helvetica;html=1;" vertex="1" parent="u_y2yYAMa3JCngrs2_xj-1">
          <mxGeometry x="1040" y="780" width="150" height="50" as="geometry" />
        </mxCell>
        <mxCell id="3uOBu90KWXw_YvpxLoa6-42" value="" style="endArrow=block;endSize=16;endFill=0;html=1;entryX=0.5;entryY=1;entryDx=0;entryDy=0;exitX=0.5;exitY=0;exitDx=0;exitDy=0;" edge="1" parent="u_y2yYAMa3JCngrs2_xj-1" source="3uOBu90KWXw_YvpxLoa6-40" target="3uOBu90KWXw_YvpxLoa6-32">
          <mxGeometry x="0.2231" y="-16" width="160" relative="1" as="geometry">
            <mxPoint x="675" y="520" as="sourcePoint" />
            <mxPoint x="735" y="480" as="targetPoint" />
            <mxPoint as="offset" />
          </mxGeometry>
        </mxCell>
        <mxCell id="3uOBu90KWXw_YvpxLoa6-43" value="" style="endArrow=block;endSize=16;endFill=0;html=1;exitX=0.25;exitY=0;exitDx=0;exitDy=0;entryX=1;entryY=1;entryDx=0;entryDy=0;" edge="1" parent="u_y2yYAMa3JCngrs2_xj-1" source="3uOBu90KWXw_YvpxLoa6-41" target="3uOBu90KWXw_YvpxLoa6-32">
          <mxGeometry x="0.2231" y="-16" width="160" relative="1" as="geometry">
            <mxPoint x="870" y="630" as="sourcePoint" />
            <mxPoint x="990" y="700" as="targetPoint" />
            <mxPoint as="offset" />
          </mxGeometry>
        </mxCell>
        <mxCell id="3uOBu90KWXw_YvpxLoa6-58" style="edgeStyle=none;rounded=0;orthogonalLoop=1;jettySize=auto;html=1;exitX=1;exitY=0.5;exitDx=0;exitDy=0;exitPerimeter=0;entryX=0.25;entryY=0;entryDx=0;entryDy=0;endArrow=none;endFill=0;startSize=6;" edge="1" parent="u_y2yYAMa3JCngrs2_xj-1" source="3uOBu90KWXw_YvpxLoa6-46" target="3uOBu90KWXw_YvpxLoa6-32">
          <mxGeometry relative="1" as="geometry" />
        </mxCell>
        <mxCell id="3uOBu90KWXw_YvpxLoa6-46" value="" style="shape=requiredInterface;html=1;verticalLabelPosition=bottom;rotation=55;" vertex="1" parent="u_y2yYAMa3JCngrs2_xj-1">
          <mxGeometry x="900" y="590" width="16.79" height="30" as="geometry" />
        </mxCell>
        <mxCell id="3uOBu90KWXw_YvpxLoa6-50" value="IAIAlgJob" style="text;html=1;align=center;verticalAlign=middle;resizable=0;points=[];autosize=1;strokeColor=none;" vertex="1" parent="u_y2yYAMa3JCngrs2_xj-1">
          <mxGeometry x="870" y="590" width="70" height="20" as="geometry" />
        </mxCell>
        <mxCell id="3uOBu90KWXw_YvpxLoa6-51" value="&lt;p style=&quot;margin: 0px ; margin-top: 4px ; text-align: center&quot;&gt;&lt;br&gt;&lt;b&gt;CommandHandler&lt;/b&gt;&lt;/p&gt;" style="verticalAlign=top;align=left;overflow=fill;fontSize=12;fontFamily=Helvetica;html=1;" vertex="1" parent="u_y2yYAMa3JCngrs2_xj-1">
          <mxGeometry x="640" y="600" width="140" height="60" as="geometry" />
        </mxCell>
        <mxCell id="3uOBu90KWXw_YvpxLoa6-52" value="" style="endArrow=diamondThin;endFill=0;endSize=24;html=1;entryX=0.5;entryY=1;entryDx=0;entryDy=0;exitX=0.25;exitY=0;exitDx=0;exitDy=0;" edge="1" parent="u_y2yYAMa3JCngrs2_xj-1" source="3uOBu90KWXw_YvpxLoa6-51" target="3uOBu90KWXw_YvpxLoa6-20">
          <mxGeometry width="160" relative="1" as="geometry">
            <mxPoint x="580" y="652.5" as="sourcePoint" />
            <mxPoint x="630" y="557.5" as="targetPoint" />
          </mxGeometry>
        </mxCell>
        <mxCell id="3uOBu90KWXw_YvpxLoa6-53" value="" style="endArrow=diamondThin;endFill=0;endSize=24;html=1;entryX=0.25;entryY=1;entryDx=0;entryDy=0;exitX=0.75;exitY=0;exitDx=0;exitDy=0;" edge="1" parent="u_y2yYAMa3JCngrs2_xj-1" source="3uOBu90KWXw_YvpxLoa6-51" target="3uOBu90KWXw_YvpxLoa6-19">
          <mxGeometry width="160" relative="1" as="geometry">
            <mxPoint x="772.31" y="625" as="sourcePoint" />
            <mxPoint x="719.99" y="565" as="targetPoint" />
          </mxGeometry>
        </mxCell>
        <mxCell id="3uOBu90KWXw_YvpxLoa6-54" value="&lt;p style=&quot;margin: 0px ; margin-top: 4px ; text-align: center&quot;&gt;&lt;br&gt;&lt;b&gt;IOperation&lt;/b&gt;&lt;/p&gt;" style="verticalAlign=top;align=left;overflow=fill;fontSize=12;fontFamily=Helvetica;html=1;" vertex="1" parent="u_y2yYAMa3JCngrs2_xj-1">
          <mxGeometry x="640" y="690" width="110" height="40" as="geometry" />
        </mxCell>
        <mxCell id="3uOBu90KWXw_YvpxLoa6-55" value="" style="endArrow=diamondThin;endFill=0;endSize=24;html=1;entryX=0.5;entryY=1;entryDx=0;entryDy=0;exitX=0.5;exitY=0;exitDx=0;exitDy=0;" edge="1" parent="u_y2yYAMa3JCngrs2_xj-1" source="3uOBu90KWXw_YvpxLoa6-54" target="3uOBu90KWXw_YvpxLoa6-51">
          <mxGeometry width="160" relative="1" as="geometry">
            <mxPoint x="755" y="630" as="sourcePoint" />
            <mxPoint x="805" y="570" as="targetPoint" />
          </mxGeometry>
        </mxCell>
        <mxCell id="3uOBu90KWXw_YvpxLoa6-56" value="&lt;p style=&quot;margin: 0px ; margin-top: 4px ; text-align: center&quot;&gt;&lt;br&gt;&lt;b&gt;AIOpCalculation&lt;/b&gt;&lt;/p&gt;" style="verticalAlign=top;align=left;overflow=fill;fontSize=12;fontFamily=Helvetica;html=1;" vertex="1" parent="u_y2yYAMa3JCngrs2_xj-1">
          <mxGeometry x="530" y="780" width="140" height="60" as="geometry" />
        </mxCell>
        <mxCell id="3uOBu90KWXw_YvpxLoa6-57" value="&lt;p style=&quot;margin: 0px ; margin-top: 4px ; text-align: center&quot;&gt;&lt;br&gt;&lt;b&gt;AIWorkerOpDoJ&lt;/b&gt;&lt;b&gt;ob&lt;/b&gt;&lt;/p&gt;" style="verticalAlign=top;align=left;overflow=fill;fontSize=12;fontFamily=Helvetica;html=1;" vertex="1" parent="u_y2yYAMa3JCngrs2_xj-1">
          <mxGeometry x="690" y="780" width="140" height="60" as="geometry" />
        </mxCell>
        <mxCell id="3uOBu90KWXw_YvpxLoa6-59" value="" style="endArrow=block;endSize=16;endFill=0;html=1;entryX=0.25;entryY=1;entryDx=0;entryDy=0;exitX=0.5;exitY=0;exitDx=0;exitDy=0;" edge="1" parent="u_y2yYAMa3JCngrs2_xj-1" source="3uOBu90KWXw_YvpxLoa6-56" target="3uOBu90KWXw_YvpxLoa6-54">
          <mxGeometry x="0.2231" y="-16" width="160" relative="1" as="geometry">
            <mxPoint x="945" y="720" as="sourcePoint" />
            <mxPoint x="975" y="680" as="targetPoint" />
            <mxPoint as="offset" />
          </mxGeometry>
        </mxCell>
        <mxCell id="3uOBu90KWXw_YvpxLoa6-60" value="" style="endArrow=block;endSize=16;endFill=0;html=1;entryX=0.75;entryY=1;entryDx=0;entryDy=0;exitX=0.25;exitY=0;exitDx=0;exitDy=0;" edge="1" parent="u_y2yYAMa3JCngrs2_xj-1" target="3uOBu90KWXw_YvpxLoa6-54">
          <mxGeometry x="0.2231" y="-16" width="160" relative="1" as="geometry">
            <mxPoint x="745" y="780" as="sourcePoint" />
            <mxPoint x="677.5" y="740" as="targetPoint" />
            <mxPoint as="offset" />
          </mxGeometry>
        </mxCell>
        <mxCell id="3uOBu90KWXw_YvpxLoa6-61" value="&lt;p style=&quot;margin: 0px ; margin-top: 4px ; text-align: center&quot;&gt;&lt;br&gt;&lt;b&gt;AITaskQueue&lt;/b&gt;&lt;/p&gt;" style="verticalAlign=top;align=left;overflow=fill;fontSize=12;fontFamily=Helvetica;html=1;" vertex="1" parent="u_y2yYAMa3JCngrs2_xj-1">
          <mxGeometry x="50" y="580" width="140" height="50" as="geometry" />
        </mxCell>
        <mxCell id="3uOBu90KWXw_YvpxLoa6-64" value="&lt;p style=&quot;margin: 0px ; margin-top: 4px ; text-align: center&quot;&gt;&lt;br&gt;&lt;b&gt;AITask&lt;/b&gt;&lt;/p&gt;" style="verticalAlign=top;align=left;overflow=fill;fontSize=12;fontFamily=Helvetica;html=1;" vertex="1" parent="u_y2yYAMa3JCngrs2_xj-1">
          <mxGeometry x="50" y="490" width="110" height="40" as="geometry" />
        </mxCell>
        <mxCell id="3uOBu90KWXw_YvpxLoa6-65" value="" style="endArrow=diamondThin;endFill=0;endSize=24;html=1;entryX=0.5;entryY=0;entryDx=0;entryDy=0;exitX=0.5;exitY=1;exitDx=0;exitDy=0;" edge="1" parent="u_y2yYAMa3JCngrs2_xj-1" source="3uOBu90KWXw_YvpxLoa6-64" target="3uOBu90KWXw_YvpxLoa6-61">
          <mxGeometry width="160" relative="1" as="geometry">
            <mxPoint x="475" y="630" as="sourcePoint" />
            <mxPoint x="430" y="570" as="targetPoint" />
          </mxGeometry>
        </mxCell>
        <mxCell id="3uOBu90KWXw_YvpxLoa6-66" value="&lt;p style=&quot;margin: 0px ; margin-top: 4px ; text-align: center&quot;&gt;&lt;br&gt;&lt;b&gt;AIMQConsumer&lt;/b&gt;&lt;/p&gt;" style="verticalAlign=top;align=left;overflow=fill;fontSize=12;fontFamily=Helvetica;html=1;" vertex="1" parent="u_y2yYAMa3JCngrs2_xj-1">
          <mxGeometry x="60" y="390" width="140" height="60" as="geometry" />
        </mxCell>
        <mxCell id="3uOBu90KWXw_YvpxLoa6-67" style="edgeStyle=none;rounded=0;orthogonalLoop=1;jettySize=auto;html=1;entryX=0.5;entryY=0;entryDx=0;entryDy=0;endArrow=open;endFill=0;startSize=6;dashed=1;dashPattern=1 4;exitX=0.5;exitY=1;exitDx=0;exitDy=0;" edge="1" parent="u_y2yYAMa3JCngrs2_xj-1" source="3uOBu90KWXw_YvpxLoa6-66" target="3uOBu90KWXw_YvpxLoa6-64">
          <mxGeometry relative="1" as="geometry">
            <mxPoint x="270" y="545" as="sourcePoint" />
            <mxPoint x="360" y="545" as="targetPoint" />
          </mxGeometry>
        </mxCell>
        <mxCell id="3uOBu90KWXw_YvpxLoa6-68" value="&lt;p style=&quot;margin: 0px ; margin-top: 4px ; text-align: center&quot;&gt;&lt;br&gt;&lt;b&gt;AIOfflineCalcualtionPipeline&lt;/b&gt;&lt;/p&gt;" style="verticalAlign=top;align=left;overflow=fill;fontSize=12;fontFamily=Helvetica;html=1;" vertex="1" parent="u_y2yYAMa3JCngrs2_xj-1">
          <mxGeometry x="230" y="590" width="180" height="60" as="geometry" />
        </mxCell>
        <mxCell id="3uOBu90KWXw_YvpxLoa6-69" value="1" style="endArrow=none;html=1;endSize=12;startArrow=diamondThin;startSize=14;startFill=1;align=left;verticalAlign=bottom;exitX=0.25;exitY=1;exitDx=0;exitDy=0;entryX=0.75;entryY=0;entryDx=0;entryDy=0;endFill=0;" edge="1" parent="u_y2yYAMa3JCngrs2_xj-1" source="3uOBu90KWXw_YvpxLoa6-26" target="3uOBu90KWXw_YvpxLoa6-68">
          <mxGeometry x="-1" y="3" relative="1" as="geometry">
            <mxPoint x="525" y="460" as="sourcePoint" />
            <mxPoint x="445" y="515" as="targetPoint" />
          </mxGeometry>
        </mxCell>
        <mxCell id="3uOBu90KWXw_YvpxLoa6-70" style="edgeStyle=none;rounded=0;orthogonalLoop=1;jettySize=auto;html=1;exitX=0.75;exitY=1;exitDx=0;exitDy=0;entryX=0.5;entryY=1;entryDx=0;entryDy=0;endArrow=none;endFill=0;startSize=6;" edge="1" parent="u_y2yYAMa3JCngrs2_xj-1" source="3uOBu90KWXw_YvpxLoa6-64" target="3uOBu90KWXw_YvpxLoa6-64">
          <mxGeometry relative="1" as="geometry" />
        </mxCell>
        <mxCell id="3uOBu90KWXw_YvpxLoa6-71" value="1" style="endArrow=none;html=1;endSize=12;startArrow=diamondThin;startSize=14;startFill=1;align=left;verticalAlign=bottom;exitX=0;exitY=0.5;exitDx=0;exitDy=0;entryX=1;entryY=0.5;entryDx=0;entryDy=0;endFill=0;" edge="1" parent="u_y2yYAMa3JCngrs2_xj-1" source="3uOBu90KWXw_YvpxLoa6-68" target="3uOBu90KWXw_YvpxLoa6-61">
          <mxGeometry x="-1" y="3" relative="1" as="geometry">
            <mxPoint x="385" y="575" as="sourcePoint" />
            <mxPoint x="365" y="620" as="targetPoint" />
          </mxGeometry>
        </mxCell>
        <mxCell id="3uOBu90KWXw_YvpxLoa6-73" value="&lt;p style=&quot;margin: 0px ; margin-top: 4px ; text-align: center&quot;&gt;&lt;br&gt;&lt;b&gt;WorkflowGraphQueue&lt;/b&gt;&lt;/p&gt;" style="verticalAlign=top;align=left;overflow=fill;fontSize=12;fontFamily=Helvetica;html=1;" vertex="1" parent="u_y2yYAMa3JCngrs2_xj-1">
          <mxGeometry x="50" y="700" width="140" height="50" as="geometry" />
        </mxCell>
        <mxCell id="3uOBu90KWXw_YvpxLoa6-74" value="1" style="endArrow=none;html=1;endSize=12;startArrow=diamondThin;startSize=14;startFill=1;align=left;verticalAlign=bottom;exitX=0;exitY=1;exitDx=0;exitDy=0;entryX=0.75;entryY=0;entryDx=0;entryDy=0;endFill=0;" edge="1" parent="u_y2yYAMa3JCngrs2_xj-1" source="3uOBu90KWXw_YvpxLoa6-68" target="3uOBu90KWXw_YvpxLoa6-73">
          <mxGeometry x="-1" y="3" relative="1" as="geometry">
            <mxPoint x="240" y="650" as="sourcePoint" />
            <mxPoint x="180" y="675" as="targetPoint" />
          </mxGeometry>
        </mxCell>
        <mxCell id="3uOBu90KWXw_YvpxLoa6-77" value="" style="endArrow=diamondThin;endFill=0;endSize=24;html=1;entryX=0.5;entryY=1;entryDx=0;entryDy=0;" edge="1" parent="u_y2yYAMa3JCngrs2_xj-1" target="3uOBu90KWXw_YvpxLoa6-73">
          <mxGeometry width="160" relative="1" as="geometry">
            <mxPoint x="110" y="810" as="sourcePoint" />
            <mxPoint x="210" y="760" as="targetPoint" />
          </mxGeometry>
        </mxCell>
        <mxCell id="3uOBu90KWXw_YvpxLoa6-78" value="&lt;p style=&quot;margin: 0px ; margin-top: 4px ; text-align: center&quot;&gt;&lt;br&gt;&lt;b&gt;WorkflowGraph&lt;/b&gt;&lt;/p&gt;" style="verticalAlign=top;align=left;overflow=fill;fontSize=12;fontFamily=Helvetica;html=1;" vertex="1" parent="u_y2yYAMa3JCngrs2_xj-1">
          <mxGeometry x="40" y="790" width="140" height="50" as="geometry" />
        </mxCell>
        <mxCell id="3uOBu90KWXw_YvpxLoa6-79" value="&lt;p style=&quot;margin: 0px ; margin-top: 4px ; text-align: center&quot;&gt;&lt;br&gt;&lt;b&gt;WorkflowGraphNode&lt;/b&gt;&lt;/p&gt;" style="verticalAlign=top;align=left;overflow=fill;fontSize=12;fontFamily=Helvetica;html=1;" vertex="1" parent="u_y2yYAMa3JCngrs2_xj-1">
          <mxGeometry y="880" width="140" height="60" as="geometry" />
        </mxCell>
        <mxCell id="3uOBu90KWXw_YvpxLoa6-81" value="" style="endArrow=diamondThin;endFill=0;endSize=24;html=1;entryX=0.5;entryY=1;entryDx=0;entryDy=0;exitX=0.75;exitY=0;exitDx=0;exitDy=0;" edge="1" parent="u_y2yYAMa3JCngrs2_xj-1" source="3uOBu90KWXw_YvpxLoa6-79" target="3uOBu90KWXw_YvpxLoa6-78">
          <mxGeometry width="160" relative="1" as="geometry">
            <mxPoint x="120" y="820" as="sourcePoint" />
            <mxPoint x="120" y="780" as="targetPoint" />
          </mxGeometry>
        </mxCell>
        <mxCell id="3uOBu90KWXw_YvpxLoa6-82" value="&lt;p style=&quot;margin: 0px ; margin-top: 4px ; text-align: center&quot;&gt;&lt;br&gt;&lt;b&gt;WorkflowExecutionNode&lt;/b&gt;&lt;/p&gt;" style="verticalAlign=top;align=left;overflow=fill;fontSize=12;fontFamily=Helvetica;html=1;" vertex="1" parent="u_y2yYAMa3JCngrs2_xj-1">
          <mxGeometry x="190" y="880" width="140" height="60" as="geometry" />
        </mxCell>
        <mxCell id="3uOBu90KWXw_YvpxLoa6-83" value="&lt;p style=&quot;margin: 0px ; margin-top: 4px ; text-align: center&quot;&gt;&lt;br&gt;&lt;b&gt;WorkflowExecutionUnit&lt;/b&gt;&lt;/p&gt;" style="verticalAlign=top;align=left;overflow=fill;fontSize=12;fontFamily=Helvetica;html=1;" vertex="1" parent="u_y2yYAMa3JCngrs2_xj-1">
          <mxGeometry x="380" y="880" width="140" height="60" as="geometry" />
        </mxCell>
        <mxCell id="3uOBu90KWXw_YvpxLoa6-84" value="&lt;p style=&quot;margin: 0px ; margin-top: 4px ; text-align: center&quot;&gt;&lt;br&gt;&lt;b&gt;AIWorkflowCTBodyPartLocate&lt;/b&gt;&lt;/p&gt;" style="verticalAlign=top;align=left;overflow=fill;fontSize=12;fontFamily=Helvetica;html=1;" vertex="1" parent="u_y2yYAMa3JCngrs2_xj-1">
          <mxGeometry x="50" y="1000" width="160" height="50" as="geometry" />
        </mxCell>
        <mxCell id="3uOBu90KWXw_YvpxLoa6-85" value="&lt;p style=&quot;margin: 0px ; margin-top: 4px ; text-align: center&quot;&gt;&lt;br&gt;&lt;b&gt;AIWorkflowCTLungNoduleSegment&lt;/b&gt;&lt;/p&gt;" style="verticalAlign=top;align=left;overflow=fill;fontSize=12;fontFamily=Helvetica;html=1;" vertex="1" parent="u_y2yYAMa3JCngrs2_xj-1">
          <mxGeometry x="240" y="1000" width="160" height="50" as="geometry" />
        </mxCell>
        <mxCell id="3uOBu90KWXw_YvpxLoa6-86" value="" style="endArrow=block;endSize=16;endFill=0;html=1;entryX=0.25;entryY=1;entryDx=0;entryDy=0;exitX=0.75;exitY=0;exitDx=0;exitDy=0;" edge="1" parent="u_y2yYAMa3JCngrs2_xj-1" source="3uOBu90KWXw_YvpxLoa6-84" target="3uOBu90KWXw_YvpxLoa6-82">
          <mxGeometry x="0.2231" y="-16" width="160" relative="1" as="geometry">
            <mxPoint x="170" y="990" as="sourcePoint" />
            <mxPoint x="237.5" y="940" as="targetPoint" />
            <mxPoint as="offset" />
          </mxGeometry>
        </mxCell>
        <mxCell id="3uOBu90KWXw_YvpxLoa6-87" value="" style="endArrow=block;endSize=16;endFill=0;html=1;entryX=0.75;entryY=1;entryDx=0;entryDy=0;exitX=0.25;exitY=0;exitDx=0;exitDy=0;" edge="1" parent="u_y2yYAMa3JCngrs2_xj-1" source="3uOBu90KWXw_YvpxLoa6-85" target="3uOBu90KWXw_YvpxLoa6-82">
          <mxGeometry x="0.2231" y="-16" width="160" relative="1" as="geometry">
            <mxPoint x="195" y="1000" as="sourcePoint" />
            <mxPoint x="225" y="950" as="targetPoint" />
            <mxPoint as="offset" />
          </mxGeometry>
        </mxCell>
        <mxCell id="3uOBu90KWXw_YvpxLoa6-88" style="edgeStyle=none;rounded=0;orthogonalLoop=1;jettySize=auto;html=1;entryX=1;entryY=0.5;entryDx=0;entryDy=0;endArrow=open;endFill=0;startSize=6;dashed=1;dashPattern=1 4;exitX=0;exitY=0.5;exitDx=0;exitDy=0;" edge="1" parent="u_y2yYAMa3JCngrs2_xj-1" source="3uOBu90KWXw_YvpxLoa6-82" target="3uOBu90KWXw_YvpxLoa6-79">
          <mxGeometry relative="1" as="geometry">
            <mxPoint x="490" y="545" as="sourcePoint" />
            <mxPoint x="570" y="545" as="targetPoint" />
          </mxGeometry>
        </mxCell>
        <mxCell id="3FGc1RoGx0824_3WWhpv-0" style="edgeStyle=none;rounded=0;orthogonalLoop=1;jettySize=auto;html=1;entryX=0;entryY=0.5;entryDx=0;entryDy=0;endArrow=open;endFill=0;startSize=6;dashed=1;dashPattern=1 4;exitX=1;exitY=0.5;exitDx=0;exitDy=0;" edge="1" parent="u_y2yYAMa3JCngrs2_xj-1" source="3uOBu90KWXw_YvpxLoa6-82" target="3uOBu90KWXw_YvpxLoa6-83">
          <mxGeometry relative="1" as="geometry">
            <mxPoint x="400" y="810" as="sourcePoint" />
            <mxPoint x="332.5" y="840" as="targetPoint" />
          </mxGeometry>
        </mxCell>
        <mxCell id="3FGc1RoGx0824_3WWhpv-1" value="&lt;p style=&quot;margin: 0px ; margin-top: 4px ; text-align: center&quot;&gt;&lt;br&gt;&lt;b&gt;WorkflowExecUnitQueue&lt;/b&gt;&lt;/p&gt;" style="verticalAlign=top;align=left;overflow=fill;fontSize=12;fontFamily=Helvetica;html=1;" vertex="1" parent="u_y2yYAMa3JCngrs2_xj-1">
          <mxGeometry x="210" y="700" width="160" height="50" as="geometry" />
        </mxCell>
        <mxCell id="3FGc1RoGx0824_3WWhpv-2" value="1" style="endArrow=none;html=1;endSize=12;startArrow=diamondThin;startSize=14;startFill=1;align=left;verticalAlign=bottom;exitX=0.5;exitY=1;exitDx=0;exitDy=0;entryX=0.5;entryY=0;entryDx=0;entryDy=0;endFill=0;" edge="1" parent="u_y2yYAMa3JCngrs2_xj-1" source="3uOBu90KWXw_YvpxLoa6-68" target="3FGc1RoGx0824_3WWhpv-1">
          <mxGeometry x="-1" y="3" relative="1" as="geometry">
            <mxPoint x="230" y="670" as="sourcePoint" />
            <mxPoint x="155" y="710" as="targetPoint" />
          </mxGeometry>
        </mxCell>
        <mxCell id="3FGc1RoGx0824_3WWhpv-3" value="" style="endArrow=diamondThin;endFill=0;endSize=24;html=1;entryX=0.5;entryY=1;entryDx=0;entryDy=0;exitX=0.25;exitY=0;exitDx=0;exitDy=0;" edge="1" parent="u_y2yYAMa3JCngrs2_xj-1" source="3uOBu90KWXw_YvpxLoa6-83" target="3FGc1RoGx0824_3WWhpv-1">
          <mxGeometry width="160" relative="1" as="geometry">
            <mxPoint x="120" y="820" as="sourcePoint" />
            <mxPoint x="120" y="760" as="targetPoint" />
          </mxGeometry>
        </mxCell>
        <mxCell id="3FGc1RoGx0824_3WWhpv-7" style="edgeStyle=orthogonalEdgeStyle;rounded=0;orthogonalLoop=1;jettySize=auto;html=1;entryX=1;entryY=0.5;entryDx=0;entryDy=0;endArrow=openThin;endFill=0;startSize=6;curved=1;dashed=1;dashPattern=1 2;strokeWidth=2;" edge="1" parent="u_y2yYAMa3JCngrs2_xj-1" source="3FGc1RoGx0824_3WWhpv-5" target="3uOBu90KWXw_YvpxLoa6-16">
          <mxGeometry relative="1" as="geometry">
            <Array as="points">
              <mxPoint x="1260" y="1025" />
              <mxPoint x="1260" y="420" />
            </Array>
          </mxGeometry>
        </mxCell>
        <mxCell id="3FGc1RoGx0824_3WWhpv-5" value="&lt;p style=&quot;margin: 0px ; margin-top: 4px ; text-align: center&quot;&gt;&lt;br&gt;&lt;b&gt;AIWorkerProxy&lt;/b&gt;&lt;/p&gt;" style="verticalAlign=top;align=left;overflow=fill;fontSize=12;fontFamily=Helvetica;html=1;" vertex="1" parent="u_y2yYAMa3JCngrs2_xj-1">
          <mxGeometry x="460" y="995" width="140" height="60" as="geometry" />
        </mxCell>
        <mxCell id="3FGc1RoGx0824_3WWhpv-6" value="1" style="endArrow=none;html=1;endSize=12;startArrow=diamondThin;startSize=14;startFill=1;align=left;verticalAlign=bottom;exitX=0.5;exitY=1;exitDx=0;exitDy=0;entryX=0.25;entryY=0;entryDx=0;entryDy=0;endFill=0;" edge="1" parent="u_y2yYAMa3JCngrs2_xj-1" source="3uOBu90KWXw_YvpxLoa6-83" target="3FGc1RoGx0824_3WWhpv-5">
          <mxGeometry x="-1" y="3" relative="1" as="geometry">
            <mxPoint x="375" y="660" as="sourcePoint" />
            <mxPoint x="390" y="710" as="targetPoint" />
          </mxGeometry>
        </mxCell>
        <mxCell id="3FGc1RoGx0824_3WWhpv-8" value="&lt;p style=&quot;margin: 0px ; margin-top: 4px ; text-align: center&quot;&gt;&lt;br&gt;&lt;b&gt;ExecThreadInfo&lt;/b&gt;&lt;/p&gt;" style="verticalAlign=top;align=left;overflow=fill;fontSize=12;fontFamily=Helvetica;html=1;" vertex="1" parent="u_y2yYAMa3JCngrs2_xj-1">
          <mxGeometry x="400" y="700" width="140" height="50" as="geometry" />
        </mxCell>
        <mxCell id="3FGc1RoGx0824_3WWhpv-9" value="" style="endArrow=diamondThin;endFill=0;endSize=24;html=1;entryX=0.75;entryY=1;entryDx=0;entryDy=0;exitX=0.25;exitY=0;exitDx=0;exitDy=0;" edge="1" parent="u_y2yYAMa3JCngrs2_xj-1" source="3FGc1RoGx0824_3WWhpv-8" target="3uOBu90KWXw_YvpxLoa6-68">
          <mxGeometry width="160" relative="1" as="geometry">
            <mxPoint x="755" y="610" as="sourcePoint" />
            <mxPoint x="805" y="570" as="targetPoint" />
          </mxGeometry>
        </mxCell>
        <mxCell id="3FGc1RoGx0824_3WWhpv-10" style="edgeStyle=none;rounded=0;orthogonalLoop=1;jettySize=auto;html=1;entryX=0.5;entryY=0;entryDx=0;entryDy=0;endArrow=open;endFill=0;startSize=6;dashed=1;dashPattern=1 4;exitX=0.5;exitY=1;exitDx=0;exitDy=0;" edge="1" parent="u_y2yYAMa3JCngrs2_xj-1" source="3FGc1RoGx0824_3WWhpv-8" target="3uOBu90KWXw_YvpxLoa6-83">
          <mxGeometry relative="1" as="geometry">
            <mxPoint x="340" y="920" as="sourcePoint" />
            <mxPoint x="390" y="920" as="targetPoint" />
          </mxGeometry>
        </mxCell>
      </root>
    </mxGraphModel>
  </diagram>
</mxfile>
